<svg id="a527121c-fdff-4d1c-8885-78e42b977e73" data-name="Layer 1" xmlns="http://www.w3.org/2000/svg" viewBox="0 0 400 385"><defs><style>.e29f96cf-8328-4b93-95ce-0e3c16a469e3{fill:#008e43;}.b150ff4f-e246-4365-a8c5-7c0f91c880cd{fill:#007c41;}</style></defs><title>RRJM-LOGO-UPDATED</title><path class="e29f96cf-8328-4b93-95ce-0e3c16a469e3" d="M302.25,226.21H98.05v9.14h204.2Zm13.49,11.92H84.56v9.14H315.74ZM70.46,250.05v9.13H329.84v-9.13Z"/><path class="e29f96cf-8328-4b93-95ce-0e3c16a469e3" d="M181.4,238a103.14,103.14,0,1,1,120-82.95A103.24,103.24,0,0,1,181.4,238ZM216.71,44.49A93.6,93.6,0,1,0,292,153.37,93.73,93.73,0,0,0,216.71,44.49Z"/><path class="e29f96cf-8328-4b93-95ce-0e3c16a469e3" d="M102.27,209.13l-2.71-3.91a5.53,5.53,0,0,1-.93-1.95,3.6,3.6,0,0,1,0-1.6,3,3,0,0,1,.62-1.25,4.51,4.51,0,0,1,1-.9,3.56,3.56,0,0,1,2.42-.6,3.85,3.85,0,0,1,1.28.39,3.68,3.68,0,0,1,1.12.91l2.88-6.67,1.3,1.88-2.93,6.21,1.16,1.69,4.89-3.4,1,1.51Zm3.84-4.89-1.36-2a7.58,7.58,0,0,0-.68-.82,2.72,2.72,0,0,0-.79-.59,1.66,1.66,0,0,0-.91-.16,2.13,2.13,0,0,0-1.06.43,2.18,2.18,0,0,0-.78.84,1.7,1.7,0,0,0-.16.91,2.84,2.84,0,0,0,.27.95,6.46,6.46,0,0,0,.53.92l1.37,2Z"/><path class="e29f96cf-8328-4b93-95ce-0e3c16a469e3" d="M103,192.75a2.35,2.35,0,0,0,.82-.74,2.83,2.83,0,0,0,.4-1,3,3,0,0,0,0-1.11,3.59,3.59,0,0,0-.38-1.1,2.51,2.51,0,0,0-1-1,4.34,4.34,0,0,0-1.38-.48l.24-1.61a4.76,4.76,0,0,1,3.55,2.62,4.84,4.84,0,0,1,.61,1.87,4.19,4.19,0,0,1-.17,1.77,4.52,4.52,0,0,1-.87,1.53,5.18,5.18,0,0,1-1.49,1.19,5,5,0,0,1-1.82.59,4.41,4.41,0,0,1-3.38-.94,4.71,4.71,0,0,1-1.21-1.46,4.38,4.38,0,0,1-.61-2,4.15,4.15,0,0,1,.3-1.73,4.5,4.5,0,0,1,1-1.41,5.89,5.89,0,0,1,1.4-1l.53-.3Zm-3.81-4.09a3.53,3.53,0,0,0-.83.67,2.42,2.42,0,0,0-.5.82,2.28,2.28,0,0,0-.09,1,2.94,2.94,0,0,0,.37,1.09,2.8,2.8,0,0,0,.76.9,2.93,2.93,0,0,0,1,.48,2.72,2.72,0,0,0,1,.08,2.25,2.25,0,0,0,.91-.27Z"/><path class="e29f96cf-8328-4b93-95ce-0e3c16a469e3" d="M93.88,180.82a2.45,2.45,0,0,0-.28.94,2.17,2.17,0,0,0,.2,1.11,2.08,2.08,0,0,0,.66.86.82.82,0,0,0,.87.12.86.86,0,0,0,.49-.5,1.91,1.91,0,0,0,.12-.72,3.53,3.53,0,0,0-.09-.78c-.06-.27-.11-.49-.15-.69a6.86,6.86,0,0,1-.12-1.08,3,3,0,0,1,.12-1,2.05,2.05,0,0,1,.46-.81,2.5,2.5,0,0,1,.9-.61,2.54,2.54,0,0,1,1.32-.23,2.62,2.62,0,0,1,1.15.42,3.44,3.44,0,0,1,.92.87,5.87,5.87,0,0,1,.68,1.16,5,5,0,0,1,.47,1.94,3.51,3.51,0,0,1-.54,1.89l-1.5-.76a5.41,5.41,0,0,0,.31-1.15,2.34,2.34,0,0,0-.21-1.29,4.18,4.18,0,0,0-.33-.57,2.11,2.11,0,0,0-.43-.46,1.36,1.36,0,0,0-.5-.24.79.79,0,0,0-.52.06.82.82,0,0,0-.48.47,1.72,1.72,0,0,0-.13.68,3.78,3.78,0,0,0,.07.74c0,.25.09.47.13.66a10.66,10.66,0,0,1,.14,1.08,3.22,3.22,0,0,1-.06,1,2.33,2.33,0,0,1-.42.85,2.28,2.28,0,0,1-.91.64,2.55,2.55,0,0,1-1.24.23,2.86,2.86,0,0,1-1.11-.37,3.7,3.7,0,0,1-.92-.81,4.25,4.25,0,0,1-.65-1.08,4.41,4.41,0,0,1-.39-1.74,2.71,2.71,0,0,1,.51-1.68Z"/><path class="e29f96cf-8328-4b93-95ce-0e3c16a469e3" d="M90,177.36l-.54-1.63,1.23-.41v0a3.2,3.2,0,0,1-1.49-.95,4.26,4.26,0,0,1-.94-1.56,4.83,4.83,0,0,1-.24-1.92,4.16,4.16,0,0,1,.5-1.69,4.55,4.55,0,0,1,1.16-1.36,5.17,5.17,0,0,1,1.66-.88,5.46,5.46,0,0,1,1.89-.28,4.52,4.52,0,0,1,1.72.41,4.33,4.33,0,0,1,1.4,1.06,4.87,4.87,0,0,1,.94,1.69,4.26,4.26,0,0,1,.18,1.87,3.15,3.15,0,0,1-.65,1.6v0l6.34-2.09.54,1.63Zm-.16-4.89a3.13,3.13,0,0,0,.61,1.11,2.68,2.68,0,0,0,.91.68,2.93,2.93,0,0,0,1.13.26,4,4,0,0,0,2.41-.79,3.15,3.15,0,0,0,.76-.88,2.72,2.72,0,0,0,.32-1.08,3.11,3.11,0,0,0-.16-1.26,3.17,3.17,0,0,0-.61-1.1,2.68,2.68,0,0,0-.91-.68,2.76,2.76,0,0,0-1.13-.26,3.84,3.84,0,0,0-1.27.19,4.12,4.12,0,0,0-1.14.6,3.05,3.05,0,0,0-.75.87,2.83,2.83,0,0,0-.33,1.09A3.06,3.06,0,0,0,89.84,172.47Z"/><path class="e29f96cf-8328-4b93-95ce-0e3c16a469e3" d="M90.71,164.57a4.64,4.64,0,0,1-1.89,0,5,5,0,0,1-1.68-.69,4.72,4.72,0,0,1-1.32-1.28,4.84,4.84,0,0,1-.75-1.77,4.8,4.8,0,0,1,.65-3.63A4.94,4.94,0,0,1,87,155.91a4.65,4.65,0,0,1,1.73-.75,4.67,4.67,0,0,1,3.58.67,4.76,4.76,0,0,1,2.06,3.06,4.78,4.78,0,0,1,0,1.92,5,5,0,0,1-.68,1.7,4.62,4.62,0,0,1-1.26,1.31A4.77,4.77,0,0,1,90.71,164.57Zm-.38-1.79a3.76,3.76,0,0,0,1.2-.47,2.76,2.76,0,0,0,1.29-1.83,3.17,3.17,0,0,0,0-1.26,2.94,2.94,0,0,0-.49-1.17,2.64,2.64,0,0,0-.82-.78,3,3,0,0,0-1.1-.37,3.5,3.5,0,0,0-1.28.06,3.75,3.75,0,0,0-1.2.46,2.93,2.93,0,0,0-.85.79,2.75,2.75,0,0,0-.44,1,3.16,3.16,0,0,0,0,1.26,3.28,3.28,0,0,0,.49,1.16,2.79,2.79,0,0,0,.83.78,3,3,0,0,0,1.09.38A4.05,4.05,0,0,0,90.33,162.78Z"/><path class="e29f96cf-8328-4b93-95ce-0e3c16a469e3" d="M83.83,152.79l-.18-1.7,1.38-.15v0a2.47,2.47,0,0,1-1.29-1,3.73,3.73,0,0,1-.63-1.79,3.79,3.79,0,0,1,.06-1.26,2.75,2.75,0,0,1,.51-1.11,2.92,2.92,0,0,1,1-.82,3.94,3.94,0,0,1,1.52-.43l5.78-.61.18,1.71-5.31.56a3.09,3.09,0,0,0-1.06.28,2,2,0,0,0-.67.53,1.83,1.83,0,0,0-.33.69,2.61,2.61,0,0,0,0,.79,2.9,2.9,0,0,0,.27,1,2,2,0,0,0,.63.74,2.64,2.64,0,0,0,1,.44,4.09,4.09,0,0,0,1.37,0l4.63-.48.18,1.71Z"/><path class="e29f96cf-8328-4b93-95ce-0e3c16a469e3" d="M85,136.43a2.66,2.66,0,0,0-.63.77,2.11,2.11,0,0,0-.24,1.1,2,2,0,0,0,.28,1,.79.79,0,0,0,.75.44.9.9,0,0,0,.65-.27,2.18,2.18,0,0,0,.39-.62,3.62,3.62,0,0,0,.22-.75q.06-.41.12-.69a6.32,6.32,0,0,1,.31-1,2.81,2.81,0,0,1,.48-.85,2.16,2.16,0,0,1,.73-.57,2.61,2.61,0,0,1,1.07-.21,2.49,2.49,0,0,1,1.31.3,2.72,2.72,0,0,1,.9.82,3.44,3.44,0,0,1,.51,1.17,5.91,5.91,0,0,1,.18,1.32,5.28,5.28,0,0,1-.31,2,3.48,3.48,0,0,1-1.24,1.53l-1.09-1.28a4.83,4.83,0,0,0,.73-.94,2.4,2.4,0,0,0,.31-1.26,3.72,3.72,0,0,0-.08-.66,2.06,2.06,0,0,0-.22-.59,1.23,1.23,0,0,0-.37-.41.84.84,0,0,0-.51-.16.89.89,0,0,0-.62.25,2.11,2.11,0,0,0-.39.58,3.91,3.91,0,0,0-.21.71c-.06.25-.1.47-.13.66-.09.37-.18.72-.29,1.05a3.1,3.1,0,0,1-.45.89,2,2,0,0,1-.71.62,2.33,2.33,0,0,1-1.08.25,2.58,2.58,0,0,1-1.24-.28,2.71,2.71,0,0,1-.88-.77,3.51,3.51,0,0,1-.53-1.1,4.39,4.39,0,0,1-.19-1.24,4.57,4.57,0,0,1,.31-1.76A2.83,2.83,0,0,1,84,135.12Z"/><path class="e29f96cf-8328-4b93-95ce-0e3c16a469e3" d="M79.59,132.09a1.28,1.28,0,0,1-1.2-1.32,1.28,1.28,0,0,1,.41-.87,1.24,1.24,0,0,1,.91-.33,1.28,1.28,0,0,1,.87.41,1.25,1.25,0,0,1-.09,1.78A1.23,1.23,0,0,1,79.59,132.09Zm3.26-.26.08-1.71,9,.42-.08,1.71Z"/><path class="e29f96cf-8328-4b93-95ce-0e3c16a469e3" d="M77.76,125.71,78,124l6.62.82v0a3.1,3.1,0,0,1-.94-1.44,4.22,4.22,0,0,1-.18-1.87,4.69,4.69,0,0,1,.59-1.84,4.23,4.23,0,0,1,1.17-1.31,4.48,4.48,0,0,1,1.61-.74,5.46,5.46,0,0,1,1.9-.09,5.53,5.53,0,0,1,1.82.55A4.69,4.69,0,0,1,92,119.16a4.19,4.19,0,0,1,.83,1.56,4.74,4.74,0,0,1,.12,1.93,4.11,4.11,0,0,1-.62,1.72A3.16,3.16,0,0,1,91,125.58v0l1.29.16-.21,1.71Zm13.53-3a3.27,3.27,0,0,0-.09-1.26,2.6,2.6,0,0,0-.53-1,2.85,2.85,0,0,0-.91-.72,4,4,0,0,0-1.23-.36,3.7,3.7,0,0,0-1.29.05,2.77,2.77,0,0,0-1.81,1.31,3.25,3.25,0,0,0-.39,1.21,3.09,3.09,0,0,0,.08,1.26,2.82,2.82,0,0,0,.53,1,2.87,2.87,0,0,0,.92.71,4,4,0,0,0,2.51.31,2.68,2.68,0,0,0,1.82-1.31A3.26,3.26,0,0,0,91.29,122.66Z"/><path class="e29f96cf-8328-4b93-95ce-0e3c16a469e3" d="M79.67,112.77l.34-1.69L94.13,114l-.34,1.68Z"/><path class="e29f96cf-8328-4b93-95ce-0e3c16a469e3" d="M91.34,108.68a2.33,2.33,0,0,0,1.11,0,2.69,2.69,0,0,0,1-.43,3.05,3.05,0,0,0,.77-.79,3.39,3.39,0,0,0,.5-1,2.52,2.52,0,0,0,0-1.44,4.11,4.11,0,0,0-.65-1.31l1.31-1a4.77,4.77,0,0,1,.7,4.35,4.89,4.89,0,0,1-.87,1.77A4.24,4.24,0,0,1,93.83,110a4.54,4.54,0,0,1-1.69.49,5.43,5.43,0,0,1-1.9-.2,4.9,4.9,0,0,1-1.71-.85,4.58,4.58,0,0,1-1.19-1.34,4.51,4.51,0,0,1-.57-1.69,5,5,0,0,1,.16-1.9,4.44,4.44,0,0,1,.95-1.84,4,4,0,0,1,1.43-1A4.33,4.33,0,0,1,91,101.3a6.28,6.28,0,0,1,1.73.24l.59.16Zm.14-5.59a3.94,3.94,0,0,0-1.06-.11,2.3,2.3,0,0,0-.93.25,2.22,2.22,0,0,0-.75.63,3.05,3.05,0,0,0-.5,1,2.76,2.76,0,0,0-.08,1.17,2.81,2.81,0,0,0,.36,1,2.73,2.73,0,0,0,.66.77,2.13,2.13,0,0,0,.84.44Z"/><path class="e29f96cf-8328-4b93-95ce-0e3c16a469e3" d="M102.86,89.5a7.27,7.27,0,0,1-1.73,2.32,6.62,6.62,0,0,1-2.31,1.35,7.13,7.13,0,0,1-2.66.32,7.3,7.3,0,0,1-2.75-.75,7.58,7.58,0,0,1-2.3-1.69,6.93,6.93,0,0,1-1.39-2.28,6.74,6.74,0,0,1-.38-2.66A7.74,7.74,0,0,1,91.81,81a6.75,6.75,0,0,1,2.32-1.35,6.91,6.91,0,0,1,2.65-.33,7.74,7.74,0,0,1,2.76.75,7.29,7.29,0,0,1,2.29,1.7,7,7,0,0,1,1.4,2.28,6.69,6.69,0,0,1,.38,2.65A7.27,7.27,0,0,1,102.86,89.5Zm-1.55-.75a4.89,4.89,0,0,0,.53-2.07,4.93,4.93,0,0,0-1.43-3.62,6.21,6.21,0,0,0-1.72-1.24,6,6,0,0,0-2-.58,5.23,5.23,0,0,0-2,.18,5.09,5.09,0,0,0-1.74.94,5,5,0,0,0-1.3,1.71,5.2,5.2,0,0,0-.53,2.07,4.89,4.89,0,0,0,.35,2,5.2,5.2,0,0,0,1.08,1.67A6,6,0,0,0,94.26,91a5.8,5.8,0,0,0,2,.58,5.07,5.07,0,0,0,2-.18,4.8,4.8,0,0,0,1.73-.94A4.87,4.87,0,0,0,101.31,88.75Z"/><path class="e29f96cf-8328-4b93-95ce-0e3c16a469e3" d="M98.7,77.19l1.07-1.67L107.06,77l-4.44-5.91,1-1.54,5.7,7.85-1,1.59Z"/><path class="e29f96cf-8328-4b93-95ce-0e3c16a469e3" d="M110,69.58a2.24,2.24,0,0,0,1,.47A2.75,2.75,0,0,0,112,70a3.07,3.07,0,0,0,1-.44,3.54,3.54,0,0,0,.86-.78,2.55,2.55,0,0,0,.56-1.33,4.59,4.59,0,0,0-.1-1.46L116,65.6a4.8,4.8,0,0,1-1,4.29,4.91,4.91,0,0,1-1.48,1.31,4.23,4.23,0,0,1-3.45.34,5.49,5.49,0,0,1-1.68-.9,4.9,4.9,0,0,1-1.26-1.44,4.61,4.61,0,0,1-.59-1.69,4.49,4.49,0,0,1,.12-1.78,4.62,4.62,0,0,1,.87-1.69,4.45,4.45,0,0,1,1.58-1.35,4,4,0,0,1,1.7-.4,4.49,4.49,0,0,1,1.68.33,6.28,6.28,0,0,1,1.5.88l.49.37Zm2.25-5.11a3.43,3.43,0,0,0-.94-.5,2.43,2.43,0,0,0-1-.13,2.4,2.4,0,0,0-.94.3,3,3,0,0,0-.86.77,2.87,2.87,0,0,0-.52,1,2.7,2.7,0,0,0-.05,1.09,2.94,2.94,0,0,0,.32,1,2.28,2.28,0,0,0,.6.73Z"/><path class="e29f96cf-8328-4b93-95ce-0e3c16a469e3" d="M112.44,58.41l1.17-1.27,1,1,0,0a2.54,2.54,0,0,1-.18-.78,3.17,3.17,0,0,1,.07-.81,3.64,3.64,0,0,1,.28-.8,2.83,2.83,0,0,1,.48-.69,2.44,2.44,0,0,1,.6-.49l1.3,1.31c-.12.08-.24.16-.35.25a2.06,2.06,0,0,0-.31.28,2.49,2.49,0,0,0-.79,1.89,3,3,0,0,0,1.15,2l3.33,3.09-1.16,1.26Z"/><path class="e29f96cf-8328-4b93-95ce-0e3c16a469e3" d="M123,51.05a2.5,2.5,0,0,0-1,0,2.18,2.18,0,0,0-1,.56,2.07,2.07,0,0,0-.6.91.82.82,0,0,0,.19.86.86.86,0,0,0,.63.3,2,2,0,0,0,.72-.13,3.55,3.55,0,0,0,.71-.34c.22-.15.42-.27.59-.37a8,8,0,0,1,1-.48,3.32,3.32,0,0,1,1-.21,2.2,2.2,0,0,1,.91.17A2.49,2.49,0,0,1,127,53a2.53,2.53,0,0,1,.65,1.18,2.65,2.65,0,0,1,0,1.22,3.4,3.4,0,0,1-.51,1.16,5.72,5.72,0,0,1-.87,1,5.33,5.33,0,0,1-1.68,1.1,3.54,3.54,0,0,1-2,.11l.22-1.67A4.82,4.82,0,0,0,124,57a2.44,2.44,0,0,0,1.14-.62,3.43,3.43,0,0,0,.43-.5,1.88,1.88,0,0,0,.29-.56,1.3,1.3,0,0,0,.06-.55.83.83,0,0,0-.23-.48.82.82,0,0,0-.6-.29,1.59,1.59,0,0,0-.68.1,4.1,4.1,0,0,0-.68.31l-.57.35a10,10,0,0,1-1,.49,3.14,3.14,0,0,1-1,.26,2,2,0,0,1-.94-.11,2.21,2.21,0,0,1-.91-.64,2.4,2.4,0,0,1-.62-1.1,2.53,2.53,0,0,1,0-1.16,3.79,3.79,0,0,1,.46-1.13,4.24,4.24,0,0,1,.8-1,4.44,4.44,0,0,1,1.51-1,2.78,2.78,0,0,1,1.76-.08Z"/><path class="e29f96cf-8328-4b93-95ce-0e3c16a469e3" d="M129.16,49.48a2.3,2.3,0,0,0,.86.7,2.77,2.77,0,0,0,1,.24,3,3,0,0,0,1.09-.18,3.79,3.79,0,0,0,1-.55,2.58,2.58,0,0,0,.87-1.15,4.72,4.72,0,0,0,.25-1.44l1.63,0a4.76,4.76,0,0,1-2,3.92,5.07,5.07,0,0,1-1.75.91,4.15,4.15,0,0,1-1.78.1,4.3,4.3,0,0,1-1.65-.61,5.37,5.37,0,0,1-1.41-1.29,4.82,4.82,0,0,1-.87-1.7,4.56,4.56,0,0,1-.16-1.79,4.42,4.42,0,0,1,.55-1.69,4.73,4.73,0,0,1,1.25-1.44,4.58,4.58,0,0,1,1.86-.91,4,4,0,0,1,1.75,0,4.33,4.33,0,0,1,1.55.73,6.57,6.57,0,0,1,1.25,1.22l.37.48Zm3.43-4.4a3.27,3.27,0,0,0-.78-.72,2.34,2.34,0,0,0-.9-.36,2.3,2.3,0,0,0-1,.06,3.16,3.16,0,0,0-1,.54,2.8,2.8,0,0,0-1.09,1.93,2.9,2.9,0,0,0,.08,1,2.17,2.17,0,0,0,.41.85Z"/><path class="e29f96cf-8328-4b93-95ce-0e3c16a469e3" d="M135,40.09a4.76,4.76,0,0,1,.89-1.75A5.5,5.5,0,0,1,137.3,37a5.43,5.43,0,0,1,1.57-.7,3.31,3.31,0,0,1,1.35-.07,2.73,2.73,0,0,1,1.09.46,3,3,0,0,1,.79.84l2.47,3.9.48.73c.15.22.31.42.46.62l-1.29.81c-.28-.37-.54-.75-.78-1.13l0,0a3.2,3.2,0,0,1-.48,1.77,4.23,4.23,0,0,1-1.34,1.28,4,4,0,0,1-1.1.49,2.9,2.9,0,0,1-1.12.1,2.52,2.52,0,0,1-1-.35,2.77,2.77,0,0,1-.84-.86A2.64,2.64,0,0,1,137,43.5a2.91,2.91,0,0,1,.39-1.38,5.18,5.18,0,0,1,1-1.3A10.69,10.69,0,0,1,140,39.64l1.06-.67-.2-.32a1.92,1.92,0,0,0-.48-.51,1.84,1.84,0,0,0-1.47-.32,2.45,2.45,0,0,0-.89.37,3.31,3.31,0,0,0-.68.55,3.25,3.25,0,0,0-.45.56,2.86,2.86,0,0,0-.29.58l-.21.56Zm6,.43c-.34.22-.68.47-1,.73a5.13,5.13,0,0,0-.84.84,2.13,2.13,0,0,0-.44.91,1.15,1.15,0,0,0,.19.92,1.23,1.23,0,0,0,1,.67,2.5,2.5,0,0,0,1.38-.47,2.68,2.68,0,0,0,.89-.84,2.3,2.3,0,0,0,.35-1,2.58,2.58,0,0,0-.09-1,3.44,3.44,0,0,0-.38-.85l-.3-.48Z"/><path class="e29f96cf-8328-4b93-95ce-0e3c16a469e3" d="M148.91,33.35a2.81,2.81,0,0,0-1-.22,2.13,2.13,0,0,0-1.09.28,2.05,2.05,0,0,0-.82.71A.81.81,0,0,0,146,35a.86.86,0,0,0,.53.46,1.9,1.9,0,0,0,.72.08,3.39,3.39,0,0,0,.77-.15l.68-.19a8.61,8.61,0,0,1,1.07-.19,2.83,2.83,0,0,1,1,0,2.09,2.09,0,0,1,.83.41,2.32,2.32,0,0,1,.67.86,2.48,2.48,0,0,1,.32,1.3,2.87,2.87,0,0,1-.34,1.18,3.52,3.52,0,0,1-.81,1,6.19,6.19,0,0,1-1.11.75,5.64,5.64,0,0,1-1.91.61,3.62,3.62,0,0,1-1.93-.43l.66-1.54a5.16,5.16,0,0,0,1.17.23,2.25,2.25,0,0,0,1.27-.29,3.25,3.25,0,0,0,.55-.36,1.84,1.84,0,0,0,.43-.46,1.3,1.3,0,0,0,.21-.52.8.8,0,0,0-.09-.52.85.85,0,0,0-.5-.45,1.77,1.77,0,0,0-.69-.08,4.83,4.83,0,0,0-.73.12l-.65.17c-.37.09-.72.16-1.07.21a2.74,2.74,0,0,1-1,0,2.11,2.11,0,0,1-.88-.36,2.7,2.7,0,0,1-1-2.09,2.59,2.59,0,0,1,.29-1.13,3.79,3.79,0,0,1,.75-1,4.29,4.29,0,0,1,1-.73,4.49,4.49,0,0,1,1.72-.5,2.75,2.75,0,0,1,1.71.4Z"/><path class="e29f96cf-8328-4b93-95ce-0e3c16a469e3" d="M156.82,22.34l2.6-.81L166.58,30l.07,0,1-11,2.6-.81,4,12.87-1.74.55L169.22,21h0l-1,12L167,33.3l-7.68-9.22h0l3.32,10.59-1.74.55Z"/><path class="e29f96cf-8328-4b93-95ce-0e3c16a469e3" d="M176,22.67a4.68,4.68,0,0,1,1.48-1.28,5.65,5.65,0,0,1,1.82-.67,5.33,5.33,0,0,1,1.72,0,3.35,3.35,0,0,1,1.27.45,2.63,2.63,0,0,1,.84.82,3.3,3.3,0,0,1,.41,1.08l.81,4.55c.06.31.12.6.18.86a7.25,7.25,0,0,0,.19.74l-1.51.26c-.11-.44-.21-.88-.29-1.34h0a3.23,3.23,0,0,1-1.11,1.46,4.5,4.5,0,0,1-1.72.68,4.56,4.56,0,0,1-1.22,0,3.11,3.11,0,0,1-1.07-.33,2.47,2.47,0,0,1-.82-.72,2.92,2.92,0,0,1-.32-2.63,3,3,0,0,1,.88-1.13,5.21,5.21,0,0,1,1.46-.8,11.2,11.2,0,0,1,1.88-.51l1.24-.21-.07-.38a1.86,1.86,0,0,0-.25-.65,1.83,1.83,0,0,0-.5-.54,2,2,0,0,0-.74-.32,2.39,2.39,0,0,0-1,0,3.35,3.35,0,0,0-.84.25,3.8,3.8,0,0,0-.63.35,2.83,2.83,0,0,0-.48.43l-.41.44Zm5.4,2.67c-.4.08-.81.17-1.22.29a4.78,4.78,0,0,0-1.1.46,2.23,2.23,0,0,0-.75.67,1.18,1.18,0,0,0-.17.92,1.24,1.24,0,0,0,.71,1,2.55,2.55,0,0,0,1.46.09,2.81,2.81,0,0,0,1.14-.44,2.32,2.32,0,0,0,.68-.76,2.25,2.25,0,0,0,.28-.91,3.59,3.59,0,0,0,0-.93l-.1-.57Z"/><path class="e29f96cf-8328-4b93-95ce-0e3c16a469e3" d="M186.53,19.82l1.71-.14.11,1.39h0a2.62,2.62,0,0,1,1-1.26,4,4,0,0,1,3.07-.49,3,3,0,0,1,1.1.53,3.16,3.16,0,0,1,.79,1,3.82,3.82,0,0,1,.39,1.53l.47,5.79-1.71.14L193.1,23a2.89,2.89,0,0,0-.26-1.06,1.72,1.72,0,0,0-.51-.68,1.51,1.51,0,0,0-.69-.35,2.25,2.25,0,0,0-.78-.06,2.57,2.57,0,0,0-1,.25,2.11,2.11,0,0,0-.76.6,2.53,2.53,0,0,0-.45,1,4,4,0,0,0-.08,1.37l.37,4.64-1.71.14Z"/><path class="e29f96cf-8328-4b93-95ce-0e3c16a469e3" d="M198.22,19l1.72,0,0,1.3h0a3.36,3.36,0,0,1,1.39-1.09,4.2,4.2,0,0,1,1.79-.37,4.94,4.94,0,0,1,1.89.41,4.16,4.16,0,0,1,1.43,1,4.54,4.54,0,0,1,.89,1.54,5.18,5.18,0,0,1,.28,1.86,5.24,5.24,0,0,1-.36,1.88,4.5,4.5,0,0,1-1,1.48,4.24,4.24,0,0,1-1.47,1,4.89,4.89,0,0,1-1.91.32,4.25,4.25,0,0,1-1.82-.45,3.22,3.22,0,0,1-1.29-1.15h0l-.14,6.68-1.72,0Zm4.66,1.48a3.16,3.16,0,0,0-1.25.21,2.82,2.82,0,0,0-.95.63,3,3,0,0,0-.61,1,3.44,3.44,0,0,0-.23,1.26,3.72,3.72,0,0,0,.18,1.27,3,3,0,0,0,.56,1,2.78,2.78,0,0,0,.93.67,3.17,3.17,0,0,0,1.23.26,3.08,3.08,0,0,0,1.24-.21,2.75,2.75,0,0,0,1-.62,2.93,2.93,0,0,0,.62-1,3.87,3.87,0,0,0,.23-1.26,3.76,3.76,0,0,0-.18-1.27,2.81,2.81,0,0,0-.57-1,2.61,2.61,0,0,0-.92-.67A3,3,0,0,0,202.88,20.51Z"/><path class="e29f96cf-8328-4b93-95ce-0e3c16a469e3" d="M210.05,24a4.7,4.7,0,0,1,.61-1.79,4.78,4.78,0,0,1,1.21-1.36,5,5,0,0,1,1.64-.82,4.73,4.73,0,0,1,1.92-.12,4.73,4.73,0,0,1,4,3.45,4.37,4.37,0,0,1,.13,1.88A4.53,4.53,0,0,1,219,27a4.59,4.59,0,0,1-1.2,1.35,4.8,4.8,0,0,1-1.65.81,4.89,4.89,0,0,1-3.74-.49,4.71,4.71,0,0,1-1.38-1.2,4.43,4.43,0,0,1-.82-1.62A4.79,4.79,0,0,1,210.05,24Zm1.82.23a3.69,3.69,0,0,0,0,1.29,2.9,2.9,0,0,0,.46,1.06,2.79,2.79,0,0,0,.84.76,3.1,3.1,0,0,0,1.2.4,3.26,3.26,0,0,0,1.26-.08,2.7,2.7,0,0,0,1-.52,2.85,2.85,0,0,0,.72-.91,3.85,3.85,0,0,0,.37-1.23,3.63,3.63,0,0,0-.05-1.28,2.81,2.81,0,0,0-.45-1.06,2.6,2.6,0,0,0-.85-.76,3,3,0,0,0-1.2-.4,3.1,3.1,0,0,0-1.26.07,2.79,2.79,0,0,0-1,.53,2.92,2.92,0,0,0-.71.9A3.75,3.75,0,0,0,211.87,24.19Z"/><path class="e29f96cf-8328-4b93-95ce-0e3c16a469e3" d="M222.44,21l1.87.48.29,7h0l3.77-6,1.77.45.55,7.11h0L234.3,24l1.77.46-5.06,8-1.68-.44L228.68,25h0l-3.78,6-1.78-.45Z"/><path class="e29f96cf-8328-4b93-95ce-0e3c16a469e3" d="M237.92,30.75a2.34,2.34,0,0,0-.15,1.1,2.86,2.86,0,0,0,.34,1,3,3,0,0,0,.71.84,3.47,3.47,0,0,0,1,.59,2.48,2.48,0,0,0,1.43.16,4.56,4.56,0,0,0,1.37-.53l.85,1.39a4.75,4.75,0,0,1-4.4.29,4.94,4.94,0,0,1-1.67-1,4,4,0,0,1-1-1.46,4.37,4.37,0,0,1-.33-1.73,5.53,5.53,0,0,1,.38-1.88,5,5,0,0,1,1-1.62,4.45,4.45,0,0,1,3.19-1.46,4.77,4.77,0,0,1,1.87.33,4.54,4.54,0,0,1,1.75,1.13,4.08,4.08,0,0,1,.88,1.51,4.43,4.43,0,0,1,.17,1.7,6.58,6.58,0,0,1-.4,1.7l-.22.57Zm5.55.67a3.67,3.67,0,0,0,.2-1,2.14,2.14,0,0,0-.15-.95,2.19,2.19,0,0,0-.56-.81,3,3,0,0,0-1-.6,2.85,2.85,0,0,0-1.17-.19,2.8,2.8,0,0,0-1.05.26,2.91,2.91,0,0,0-.83.59,2.36,2.36,0,0,0-.52.79Z"/><path class="e29f96cf-8328-4b93-95ce-0e3c16a469e3" d="M249.3,29.86l1.54.75-.61,1.26h0a3,3,0,0,1,.7-.39,3.17,3.17,0,0,1,.8-.17,3.41,3.41,0,0,1,.84,0,3.07,3.07,0,0,1,.81.26A2.26,2.26,0,0,1,254,32l-.87,1.64a2.88,2.88,0,0,0-.34-.27,1.65,1.65,0,0,0-.36-.22,2.5,2.5,0,0,0-2-.21,3.12,3.12,0,0,0-1.56,1.68l-2,4.09L245.35,38Z"/><path class="e29f96cf-8328-4b93-95ce-0e3c16a469e3" d="M264.66,33.06l3.94,2.65a5.56,5.56,0,0,1,1.58,1.48,3.73,3.73,0,0,1,.6,1.48,3.22,3.22,0,0,1-.12,1.39,4.44,4.44,0,0,1-1.46,2.17,2.94,2.94,0,0,1-1.24.64,3.73,3.73,0,0,1-1.6,0,5.72,5.72,0,0,1-2-.9L262,40.35l-3.32,4.94-1.52-1Zm-1.8,6,2,1.34a6.4,6.4,0,0,0,.92.52,2.87,2.87,0,0,0,1,.26,1.73,1.73,0,0,0,.91-.18,2.25,2.25,0,0,0,.82-.79,2.14,2.14,0,0,0,.42-1.07,1.77,1.77,0,0,0-.18-.91,2.72,2.72,0,0,0-.6-.78,6.68,6.68,0,0,0-.83-.66l-2-1.34Z"/><path class="e29f96cf-8328-4b93-95ce-0e3c16a469e3" d="M275.2,39.38l1.35,1.06-8.91,11.34-1.35-1.06Z"/><path class="e29f96cf-8328-4b93-95ce-0e3c16a469e3" d="M275.39,47.81a4.89,4.89,0,0,1,1.91.38,5.66,5.66,0,0,1,1.64,1,5.35,5.35,0,0,1,1.1,1.32,3.36,3.36,0,0,1,.42,1.29,2.7,2.7,0,0,1-.14,1.17,3.19,3.19,0,0,1-.6,1l-3.1,3.42c-.21.24-.4.46-.57.67s-.33.41-.47.6l-1.13-1a12.68,12.68,0,0,1,.88-1.06l0,0a3.38,3.38,0,0,1-1.84,0,4.31,4.31,0,0,1-1.58-1,4,4,0,0,1-.78-.93,2.86,2.86,0,0,1-.4-1.06,2.48,2.48,0,0,1,.07-1.08,2.88,2.88,0,0,1,1.88-1.86,2.88,2.88,0,0,1,1.43,0,5,5,0,0,1,1.54.67,10.62,10.62,0,0,1,1.54,1.17l.94.85.25-.28a1.81,1.81,0,0,0,.36-.6,1.78,1.78,0,0,0,.12-.73,1.8,1.8,0,0,0-.2-.77,2.56,2.56,0,0,0-.6-.77,3.31,3.31,0,0,0-.71-.5,3.11,3.11,0,0,0-.66-.28,2.83,2.83,0,0,0-.63-.13l-.6-.05Zm1.18,5.91a9.52,9.52,0,0,0-1-.79,4.75,4.75,0,0,0-1-.59,2.22,2.22,0,0,0-1-.18,1.19,1.19,0,0,0-.84.43,1.24,1.24,0,0,0-.36,1.18,2.56,2.56,0,0,0,.82,1.21,2.67,2.67,0,0,0,1.05.63,2.2,2.2,0,0,0,1,.08,2.46,2.46,0,0,0,.9-.34,3.78,3.78,0,0,0,.72-.59l.38-.43Z"/><path class="e29f96cf-8328-4b93-95ce-0e3c16a469e3" d="M286.75,60.86a3.34,3.34,0,0,0-.13-1.25,2.84,2.84,0,0,0-.65-1.09,2.68,2.68,0,0,0-1-.73,2.49,2.49,0,0,0-1.11-.17,3.08,3.08,0,0,0-1.12.31,3.78,3.78,0,0,0-1,.69,3.06,3.06,0,0,0-.73,1,3,3,0,0,0-.33,1.1,2.86,2.86,0,0,0,.14,1.12,2.8,2.8,0,0,0,.64,1,2.76,2.76,0,0,0,1,.74,3.29,3.29,0,0,0,1.2.19l-.07,1.72a3.82,3.82,0,0,1-1.84-.41,5.7,5.7,0,0,1-2.56-2.8,4.53,4.53,0,0,1-.3-1.76,4.24,4.24,0,0,1,.43-1.72,5,5,0,0,1,1.18-1.55,5.17,5.17,0,0,1,1.64-1.06,4.37,4.37,0,0,1,1.76-.31,4.29,4.29,0,0,1,1.73.43,5.29,5.29,0,0,1,2.6,2.81A4.19,4.19,0,0,1,288.5,61Z"/><path class="e29f96cf-8328-4b93-95ce-0e3c16a469e3" d="M287.65,66.23a2.22,2.22,0,0,0-.7.86,2.69,2.69,0,0,0-.25,1,3.31,3.31,0,0,0,.17,1.1,3.45,3.45,0,0,0,.54,1,2.58,2.58,0,0,0,1.14.88,4.72,4.72,0,0,0,1.44.27V73a4.75,4.75,0,0,1-3.9-2.06,5,5,0,0,1-.89-1.75,4.15,4.15,0,0,1-.09-1.78,4.28,4.28,0,0,1,.63-1.65,5.36,5.36,0,0,1,1.3-1.4,5,5,0,0,1,1.7-.86,4.76,4.76,0,0,1,1.79-.14,4.4,4.4,0,0,1,1.69.57,4.73,4.73,0,0,1,1.43,1.26,4.65,4.65,0,0,1,.9,1.87,4,4,0,0,1-.05,1.75,4.39,4.39,0,0,1-.74,1.54,6,6,0,0,1-1.23,1.23l-.48.38ZM292,69.7a4,4,0,0,0,.72-.78,2.36,2.36,0,0,0,.37-.9,2.31,2.31,0,0,0-.06-1,2.9,2.9,0,0,0-.53-1,2.71,2.71,0,0,0-.89-.77,2.82,2.82,0,0,0-1-.33,3.1,3.1,0,0,0-1,.07,2.53,2.53,0,0,0-.86.4Z"/><path class="e29f96cf-8328-4b93-95ce-0e3c16a469e3" d="M298.1,71.52l.81,1.38-1.22.72v0a1.57,1.57,0,0,1,.57,0,3.27,3.27,0,0,1,.77.25,3.62,3.62,0,0,1,.82.54,3.1,3.1,0,0,1,.72.87,3.36,3.36,0,0,1,.5,1.68,3.2,3.2,0,0,1-.53,1.61,2.88,2.88,0,0,1,1.71.43,3.44,3.44,0,0,1,1.18,1.19,3.74,3.74,0,0,1,.57,1.66,2.78,2.78,0,0,1-.25,1.36,3.55,3.55,0,0,1-.84,1.1,7.78,7.78,0,0,1-1.21.87l-4.54,2.65-.87-1.48,4.35-2.54a7.08,7.08,0,0,0,.83-.56,2.25,2.25,0,0,0,.58-.66,1.47,1.47,0,0,0,.2-.8,2.39,2.39,0,0,0-1.87-2.13,3.35,3.35,0,0,0-2,.52l-4.27,2.49-.86-1.48,4.08-2.39a8.09,8.09,0,0,0,1-.65,2.69,2.69,0,0,0,.66-.7,1.42,1.42,0,0,0,.24-.8,2,2,0,0,0-.31-1,2.3,2.3,0,0,0-.61-.67,2,2,0,0,0-.84-.38,2.54,2.54,0,0,0-1.06,0,4,4,0,0,0-1.24.5l-4.06,2.36-.86-1.48Z"/><path class="e29f96cf-8328-4b93-95ce-0e3c16a469e3" d="M302.29,90a2.13,2.13,0,0,0-.89.66,2.63,2.63,0,0,0-.5,1,3.06,3.06,0,0,0-.11,1.1,3.73,3.73,0,0,0,.27,1.13,2.55,2.55,0,0,0,.89,1.13,4.53,4.53,0,0,0,1.33.62l-.4,1.58a5.26,5.26,0,0,1-3.7-4.88,4.16,4.16,0,0,1,.34-1.74,4.53,4.53,0,0,1,1-1.45,5.24,5.24,0,0,1,1.6-1,4.82,4.82,0,0,1,1.86-.42,4.92,4.92,0,0,1,1.77.31,4.34,4.34,0,0,1,1.5,1,4.75,4.75,0,0,1,1.07,1.57,4.52,4.52,0,0,1,.41,2,4,4,0,0,1-.48,1.69,4.41,4.41,0,0,1-1.09,1.31,6.71,6.71,0,0,1-1.5.9l-.56.23Zm3.38,4.44a3.65,3.65,0,0,0,.9-.57,2.38,2.38,0,0,0,.57-.78,2.32,2.32,0,0,0,.19-1,2.88,2.88,0,0,0-1.85-2.66,2.69,2.69,0,0,0-1-.19,2.34,2.34,0,0,0-.93.18Z"/><path class="e29f96cf-8328-4b93-95ce-0e3c16a469e3" d="M311,97.73l.51,1.64-1.33.42v0a2.55,2.55,0,0,1,1.46.73,3.65,3.65,0,0,1,1,1.63,3.84,3.84,0,0,1,.18,1.26,2.84,2.84,0,0,1-.28,1.18,2.91,2.91,0,0,1-.81,1,4.25,4.25,0,0,1-1.41.72l-5.55,1.73-.51-1.64,5.1-1.59a3,3,0,0,0,1-.48,2.05,2.05,0,0,0,.55-.65A1.81,1.81,0,0,0,311,103a2.58,2.58,0,0,0-.11-.78,2.89,2.89,0,0,0-.46-.89,2.08,2.08,0,0,0-.76-.61,2.51,2.51,0,0,0-1.06-.22,4.37,4.37,0,0,0-1.35.21l-4.44,1.39-.51-1.64Z"/><path class="e29f96cf-8328-4b93-95ce-0e3c16a469e3" d="M313.79,113.9l-.53-2.41-4,.89c-.25.05-.49.11-.73.18a2.08,2.08,0,0,0-.62.28,1.07,1.07,0,0,0-.39.48,1.31,1.31,0,0,0,0,.77,3.87,3.87,0,0,0,.19.61,2.37,2.37,0,0,0,.33.53l-1.52.33a2.2,2.2,0,0,1-.41-.72,4.81,4.81,0,0,1-.22-.72,3.4,3.4,0,0,1-.07-1.56,1.93,1.93,0,0,1,.53-.93,2.26,2.26,0,0,1,.89-.51c.35-.11.7-.21,1.06-.29l4.6-1-.42-1.94,1.45-.32.43,1.94,2.47-.55.37,1.67-2.47.55.53,2.41Z"/><path class="e29f96cf-8328-4b93-95ce-0e3c16a469e3" d="M252.51,108.12a191.27,191.27,0,0,1-35.38-8.7L204.18,135l40.24,14.65A146.08,146.08,0,0,0,252.51,108.12Zm-10.23,47.41L202,140.88l-12.87,35.33a191.87,191.87,0,0,1,32.62,16.32A146,146,0,0,0,242.28,155.53Zm-59.75-79.2a186.49,186.49,0,0,0,30.85,15.06l13.43-36.91C213,51.37,196.82,59.93,182.53,76.33Zm28.71,21A191.41,191.41,0,0,1,178.63,81a145.76,145.76,0,0,0-20.5,37l40.25,14.65Zm-4.05-46.92a86.68,86.68,0,0,0-46.62,9.35,135.82,135.82,0,0,0,16.77,13.18A78.85,78.85,0,0,1,207.19,50.36ZM280,103.28a86.62,86.62,0,0,0-29.63-37.2,78.76,78.76,0,0,1,8.32,36.51A135.46,135.46,0,0,0,280,103.28Zm-27.42-1.49c-.43-21.68-7.31-38.68-19.89-45.17L219.27,93.53A186.35,186.35,0,0,0,252.59,101.79ZM156,124a146,146,0,0,0-8,41.17,190.67,190.67,0,0,1,35.38,8.7l12.86-35.34L156,123.85Zm-3.79-8A150.14,150.14,0,0,1,173.29,78a140,140,0,0,1-18.41-15.15A86.18,86.18,0,0,0,120,104.09l32.19,11.72Zm96.09,41.65a149.83,149.83,0,0,1-21.13,37.88,139.21,139.21,0,0,1,18.41,15.15,86.18,86.18,0,0,0,34.87-41.2l-32.19-11.72Zm34.06-48a140.27,140.27,0,0,1-23.72-.54,149.8,149.8,0,0,1-8.24,42.79l32.2,11.72A86.16,86.16,0,0,0,282.31,109.54ZM141.85,164.41a149.77,149.77,0,0,1,8.21-42.72L117.89,109.9a86.23,86.23,0,0,0,.23,54A140.37,140.37,0,0,1,141.85,164.41Zm51.37,58.72a86.68,86.68,0,0,0,46.64-9.39,136.57,136.57,0,0,0-16.77-13.18A78.94,78.94,0,0,1,193.22,223.13Zm24.66-26A186.85,186.85,0,0,0,187,182.1L173.6,219C187.4,222.12,203.59,213.56,217.88,197.15ZM120.44,170l-.08.24A86.61,86.61,0,0,0,150,207.41a78.73,78.73,0,0,1-8.27-36.76A135.59,135.59,0,0,0,120.44,170Zm27.38,1.74c.43,21.68,7.31,38.68,19.89,45.17L181.14,180A185.5,185.5,0,0,0,147.82,171.7Z"/><path class="b150ff4f-e246-4365-a8c5-7c0f91c880cd" d="M23.79,362.67V343.36h1.92v19.31Z"/><path class="b150ff4f-e246-4365-a8c5-7c0f91c880cd" d="M36.14,362.67v-9.75c0-.51,0-1,0-1.47a4.22,4.22,0,0,0-.23-1.25,1.9,1.9,0,0,0-.65-.89A2.16,2.16,0,0,0,34,349a1.86,1.86,0,0,0-1.24.39,2.44,2.44,0,0,0-.71,1,5,5,0,0,0-.33,1.42c-.05.53-.07,1.06-.07,1.6v9.26H29.72V347.41H31.6v1.81a3.18,3.18,0,0,1,.44-.78,3,3,0,0,1,.64-.65,3,3,0,0,1,.85-.44,3.29,3.29,0,0,1,1-.16,3.91,3.91,0,0,1,1.46.24,2.78,2.78,0,0,1,1,.64,2.91,2.91,0,0,1,.61,1,6.09,6.09,0,0,1,.31,1.19,11,11,0,0,1,.11,1.33c0,.47,0,.93,0,1.38v9.73Z"/><path class="b150ff4f-e246-4365-a8c5-7c0f91c880cd" d="M44,342.45v4.95h3v1.74H44v8.68c0,.61,0,1.13,0,1.55a3.28,3.28,0,0,0,.2,1,1,1,0,0,0,.48.56,2,2,0,0,0,.89.17,3.53,3.53,0,0,0,1.13-.17q.49-.18.75-.3l.18,1.58a4.72,4.72,0,0,1-.9.44,3.67,3.67,0,0,1-1.35.23,3.84,3.84,0,0,1-1.77-.35,2.33,2.33,0,0,1-1-1,4.39,4.39,0,0,1-.45-1.59c-.06-.63-.1-1.35-.1-2.14v-8.68H40.56V347.4h1.56v-4.95Z"/><path class="b150ff4f-e246-4365-a8c5-7c0f91c880cd" d="M57.71,357.51v.27c0,.41,0,.83,0,1.24a6.43,6.43,0,0,1-.19,1.19,4,4,0,0,1-.41,1.05,2.82,2.82,0,0,1-.73.85,3.3,3.3,0,0,1-1.14.57,5.9,5.9,0,0,1-1.63.2,5.34,5.34,0,0,1-1.65-.23,3.54,3.54,0,0,1-1.15-.64,3,3,0,0,1-.73-1,5.78,5.78,0,0,1-.42-1.19,8,8,0,0,1-.19-1.34q0-.69,0-1.38V353c0-.48,0-.95,0-1.42a8,8,0,0,1,.19-1.34,5.67,5.67,0,0,1,.42-1.2,3.13,3.13,0,0,1,.74-1,3.21,3.21,0,0,1,1.14-.63,5.16,5.16,0,0,1,1.63-.23,5.36,5.36,0,0,1,1.65.22,3.23,3.23,0,0,1,1.14.59,2.87,2.87,0,0,1,.73.87,4.54,4.54,0,0,1,.41,1.08,6,6,0,0,1,.18,1.2c0,.42,0,.82,0,1.22v2.58L51.26,356v1.09c0,.51,0,1,0,1.48a3.91,3.91,0,0,0,.26,1.26,2,2,0,0,0,.69.88,2.22,2.22,0,0,0,1.31.33,2.64,2.64,0,0,0,1.27-.26,1.66,1.66,0,0,0,.68-.71,2.8,2.8,0,0,0,.27-1.05c0-.4,0-.82,0-1.28v-.27ZM53.56,349a2.26,2.26,0,0,0-1.28.32,2,2,0,0,0-.69.86,4.11,4.11,0,0,0-.28,1.26c0,.48-.05,1-.05,1.53v1.44l4.57-.81v-1.22c0-.43,0-.84,0-1.24a3.06,3.06,0,0,0-.25-1.08,1.74,1.74,0,0,0-.68-.77A2.48,2.48,0,0,0,53.56,349Z"/><path class="b150ff4f-e246-4365-a8c5-7c0f91c880cd" d="M66.62,349.28l-.47-.14a2.13,2.13,0,0,0-.76-.12h0a2,2,0,0,0-1.23.34,2.26,2.26,0,0,0-.71.92,4.49,4.49,0,0,0-.32,1.31c0,.49-.08,1-.09,1.51v9.57H61.15V347.41H63v1.79a3.78,3.78,0,0,1,.38-.81,2.22,2.22,0,0,1,.54-.64,2.55,2.55,0,0,1,.74-.42,3,3,0,0,1,1-.15,2.45,2.45,0,0,1,.46,0,2.42,2.42,0,0,1,.46.13Z"/><path class="b150ff4f-e246-4365-a8c5-7c0f91c880cd" d="M75.41,362.67v-9.75q0-.76,0-1.47a3.93,3.93,0,0,0-.22-1.25,2,2,0,0,0-.65-.89,2.17,2.17,0,0,0-1.3-.33,1.83,1.83,0,0,0-1.23.39,2.55,2.55,0,0,0-.72,1,5.39,5.39,0,0,0-.32,1.42c0,.53-.07,1.06-.07,1.6v9.26H69V347.41h1.88v1.81a3.5,3.5,0,0,1,.43-.78,3.34,3.34,0,0,1,.65-.65,3,3,0,0,1,.85-.44,3.29,3.29,0,0,1,1-.16,3.82,3.82,0,0,1,1.45.24A2.66,2.66,0,0,1,76.84,349a5,5,0,0,1,.31,1.19,9.26,9.26,0,0,1,.12,1.33c0,.47,0,.93,0,1.38v9.73Z"/><path class="b150ff4f-e246-4365-a8c5-7c0f91c880cd" d="M87.06,362.67v-1.76a3.91,3.91,0,0,1-.37.8,2.55,2.55,0,0,1-.55.63,2.46,2.46,0,0,1-.75.41,2.93,2.93,0,0,1-1,.15,4.39,4.39,0,0,1-2-.39,3.07,3.07,0,0,1-1.18-1A4,4,0,0,1,80.7,360a9.36,9.36,0,0,1-.16-1.78,12,12,0,0,1,.1-1.61,3.06,3.06,0,0,1,.5-1.35,2.64,2.64,0,0,1,1.15-.93,5.2,5.2,0,0,1,2.1-.35,7.6,7.6,0,0,1,1.59.14,6.88,6.88,0,0,1,1.07.32v-1.49c0-.54,0-1.05,0-1.53a4.18,4.18,0,0,0-.27-1.27,1.91,1.91,0,0,0-.68-.85,2.31,2.31,0,0,0-1.27-.31,2.11,2.11,0,0,0-1.17.29A1.84,1.84,0,0,0,83,350a3,3,0,0,0-.29,1,10.88,10.88,0,0,0-.06,1.14v.21H80.72v-.21a11.43,11.43,0,0,1,0-1.15,7.14,7.14,0,0,1,.19-1.14,4.38,4.38,0,0,1,.43-1.05,3.15,3.15,0,0,1,.73-.86,3.48,3.48,0,0,1,1.1-.58,4.71,4.71,0,0,1,1.55-.22,4.83,4.83,0,0,1,2.08.39,3.22,3.22,0,0,1,1.27,1.05,4,4,0,0,1,.64,1.54,9.32,9.32,0,0,1,.18,1.86v10.65Zm-2.31-1.58a2.07,2.07,0,0,0,1.17-.3,2.12,2.12,0,0,0,.7-.81,3.72,3.72,0,0,0,.34-1.17,9.77,9.77,0,0,0,.09-1.35V356.1a2.91,2.91,0,0,0-.91-.41,5.38,5.38,0,0,0-1.41-.14,2.79,2.79,0,0,0-1.27.24,1.74,1.74,0,0,0-.69.62,2.18,2.18,0,0,0-.28.86,7.42,7.42,0,0,0-.06.94,5.69,5.69,0,0,0,.1,1.12,2.64,2.64,0,0,0,.34.93,1.73,1.73,0,0,0,.72.61A2.61,2.61,0,0,0,84.75,361.09Z"/><path class="b150ff4f-e246-4365-a8c5-7c0f91c880cd" d="M95.06,342.45v4.95h3v1.74h-3v8.68c0,.61,0,1.13,0,1.55a3.28,3.28,0,0,0,.2,1,1,1,0,0,0,.48.56,2,2,0,0,0,.89.17A3.53,3.53,0,0,0,97.8,361q.49-.18.75-.3l.18,1.58a4.72,4.72,0,0,1-.9.44,3.67,3.67,0,0,1-1.35.23,3.84,3.84,0,0,1-1.77-.35,2.28,2.28,0,0,1-1-1,4.39,4.39,0,0,1-.45-1.59,19.72,19.72,0,0,1-.1-2.14v-8.68H91.61V347.4h1.56v-4.95Z"/><path class="b150ff4f-e246-4365-a8c5-7c0f91c880cd" d="M101.14,343.72a1,1,0,0,1,.28-.76,1.19,1.19,0,0,1,.87-.27,1.29,1.29,0,0,1,.93.27,1,1,0,0,1,.27.76,1,1,0,0,1-.27.74,1.34,1.34,0,0,1-.93.26,1.24,1.24,0,0,1-.87-.26A.94.94,0,0,1,101.14,343.72Zm.22,18.95V347.41h1.89v15.26Z"/><path class="b150ff4f-e246-4365-a8c5-7c0f91c880cd" d="M106.67,353c0-.48,0-.95,0-1.42a8,8,0,0,1,.19-1.34,5.14,5.14,0,0,1,.41-1.2,3.47,3.47,0,0,1,.74-1,3.21,3.21,0,0,1,1.14-.63,5.16,5.16,0,0,1,1.63-.23,5,5,0,0,1,1.65.24,3.28,3.28,0,0,1,1.15.64,3,3,0,0,1,.73,1,5.67,5.67,0,0,1,.42,1.2,7.92,7.92,0,0,1,.17,1.33c0,.46,0,.92,0,1.38v4.19c0,.47,0,.94,0,1.42a8.32,8.32,0,0,1-.19,1.34,5.06,5.06,0,0,1-.41,1.19,3.22,3.22,0,0,1-.73.95,3.13,3.13,0,0,1-1.14.63,4.89,4.89,0,0,1-1.63.23,5.34,5.34,0,0,1-1.65-.23A3.54,3.54,0,0,1,108,362a3.18,3.18,0,0,1-.73-1,5.78,5.78,0,0,1-.42-1.19,7.1,7.1,0,0,1-.18-1.34c0-.46,0-.92,0-1.38Zm4.15-4a2.29,2.29,0,0,0-1.27.31,1.85,1.85,0,0,0-.68.85,3.9,3.9,0,0,0-.27,1.27c0,.48,0,1,0,1.53v4.21c0,.51,0,1,0,1.48a3.9,3.9,0,0,0,.26,1.25,1.86,1.86,0,0,0,.68.88,2.74,2.74,0,0,0,2.57,0,1.91,1.91,0,0,0,.68-.85,4.18,4.18,0,0,0,.27-1.27c0-.48,0-1,0-1.53v-4.2c0-.52,0-1,0-1.49a3.91,3.91,0,0,0-.25-1.25,1.93,1.93,0,0,0-.68-.88A2.21,2.21,0,0,0,110.82,349Z"/><path class="b150ff4f-e246-4365-a8c5-7c0f91c880cd" d="M124.87,362.67v-9.75q0-.76,0-1.47a3.93,3.93,0,0,0-.22-1.25,1.9,1.9,0,0,0-.65-.89,2.16,2.16,0,0,0-1.29-.33,1.86,1.86,0,0,0-1.24.39,2.44,2.44,0,0,0-.71,1,5,5,0,0,0-.33,1.42c-.05.53-.07,1.06-.07,1.6v9.26h-1.88V347.41h1.88v1.81a3.5,3.5,0,0,1,.43-.78,3.34,3.34,0,0,1,.65-.65,3,3,0,0,1,.85-.44,3.29,3.29,0,0,1,1-.16,3.82,3.82,0,0,1,1.45.24,2.74,2.74,0,0,1,1,.64,2.91,2.91,0,0,1,.61,1,6.09,6.09,0,0,1,.31,1.19,11,11,0,0,1,.11,1.33c0,.47,0,.93,0,1.38v9.73Z"/><path class="b150ff4f-e246-4365-a8c5-7c0f91c880cd" d="M136.52,362.67v-1.76a3.91,3.91,0,0,1-.37.8,2.44,2.44,0,0,1-1.29,1,3,3,0,0,1-1,.15,4.42,4.42,0,0,1-2-.39,3.14,3.14,0,0,1-1.18-1,4,4,0,0,1-.58-1.49,9.36,9.36,0,0,1-.16-1.78,12,12,0,0,1,.1-1.61,3.06,3.06,0,0,1,.5-1.35,2.64,2.64,0,0,1,1.15-.93,5.2,5.2,0,0,1,2.1-.35,7.6,7.6,0,0,1,1.59.14,6.88,6.88,0,0,1,1.07.32v-1.49c0-.54,0-1.05,0-1.53a3.9,3.9,0,0,0-.27-1.27,1.91,1.91,0,0,0-.68-.85,2.31,2.31,0,0,0-1.27-.31,2.11,2.11,0,0,0-1.17.29,1.84,1.84,0,0,0-.66.75,3,3,0,0,0-.29,1,10.88,10.88,0,0,0-.06,1.14v.21h-1.88v-.21c0-.37,0-.75,0-1.15a6.18,6.18,0,0,1,.2-1.14,4,4,0,0,1,.42-1.05,3.15,3.15,0,0,1,.73-.86,3.48,3.48,0,0,1,1.1-.58,4.75,4.75,0,0,1,1.55-.22,4.83,4.83,0,0,1,2.08.39,3.16,3.16,0,0,1,1.27,1.05,4,4,0,0,1,.64,1.54,9.32,9.32,0,0,1,.18,1.86v10.65Zm-2.31-1.58a2,2,0,0,0,1.17-.3,2.12,2.12,0,0,0,.7-.81,3.72,3.72,0,0,0,.34-1.17,9.77,9.77,0,0,0,.09-1.35V356.1a2.91,2.91,0,0,0-.91-.41,5.38,5.38,0,0,0-1.41-.14,2.74,2.74,0,0,0-1.26.24,1.7,1.7,0,0,0-.7.62,2.18,2.18,0,0,0-.28.86,7.42,7.42,0,0,0-.06.94,5.69,5.69,0,0,0,.1,1.12,2.47,2.47,0,0,0,.35.93,1.7,1.7,0,0,0,.71.61A2.61,2.61,0,0,0,134.21,361.09Z"/><path class="b150ff4f-e246-4365-a8c5-7c0f91c880cd" d="M142.26,362.67V342.76h1.88v19.91Z"/><path class="b150ff4f-e246-4365-a8c5-7c0f91c880cd" d="M155.46,345.7l.17,17h-1.91V343.36h2.76L159.72,357,163,343.36h2.75v19.31h-1.92l.19-17-3.31,14.12h-1.89Z"/><path class="b150ff4f-e246-4365-a8c5-7c0f91c880cd" d="M175.68,362.67v-1.76a3.94,3.94,0,0,1-.38.8,2.51,2.51,0,0,1-.54.63,2.72,2.72,0,0,1-.75.41,2.93,2.93,0,0,1-1,.15,4.36,4.36,0,0,1-1.95-.39,3,3,0,0,1-1.18-1,4,4,0,0,1-.59-1.49,10.25,10.25,0,0,1-.16-1.78,12,12,0,0,1,.11-1.61,3,3,0,0,1,.49-1.35,2.67,2.67,0,0,1,1.16-.93A5.12,5.12,0,0,1,173,354a7.6,7.6,0,0,1,1.59.14,7.38,7.38,0,0,1,1.08.32v-1.49q0-.81-.06-1.53a3.9,3.9,0,0,0-.27-1.27,1.85,1.85,0,0,0-.68-.85,2.29,2.29,0,0,0-1.27-.31,2.05,2.05,0,0,0-1.16.29,1.84,1.84,0,0,0-.66.75,3,3,0,0,0-.3,1,10.88,10.88,0,0,0-.06,1.14v.21h-1.88v-.21c0-.37,0-.75,0-1.15a7.15,7.15,0,0,1,.2-1.14,4.38,4.38,0,0,1,.43-1.05,3,3,0,0,1,.72-.86,3.48,3.48,0,0,1,1.1-.58,5.67,5.67,0,0,1,3.63.17,3.26,3.26,0,0,1,1.28,1.05,4.15,4.15,0,0,1,.64,1.54,9.32,9.32,0,0,1,.18,1.86v10.65Zm-2.31-1.58a2.07,2.07,0,0,0,1.17-.3,2.18,2.18,0,0,0,.69-.81,3.73,3.73,0,0,0,.35-1.17,9.77,9.77,0,0,0,.09-1.35V356.1a3,3,0,0,0-.92-.41,5.38,5.38,0,0,0-1.41-.14,2.77,2.77,0,0,0-1.26.24,1.61,1.61,0,0,0-.69.62,2.19,2.19,0,0,0-.29.86,7.4,7.4,0,0,0,0,.94,6.6,6.6,0,0,0,.09,1.12,2.47,2.47,0,0,0,.35.93,1.77,1.77,0,0,0,.71.61A2.66,2.66,0,0,0,173.37,361.09Z"/><path class="b150ff4f-e246-4365-a8c5-7c0f91c880cd" d="M187.85,362.67v-9.75c0-.51,0-1,0-1.47a4.22,4.22,0,0,0-.23-1.25,1.9,1.9,0,0,0-.65-.89,2.16,2.16,0,0,0-1.29-.33,1.86,1.86,0,0,0-1.24.39,2.44,2.44,0,0,0-.71,1,5,5,0,0,0-.32,1.42,14.17,14.17,0,0,0-.08,1.6v9.26h-1.88V347.41h1.88v1.81a3.18,3.18,0,0,1,.44-.78,3,3,0,0,1,.64-.65,3,3,0,0,1,.85-.44,3.29,3.29,0,0,1,1-.16,3.91,3.91,0,0,1,1.46.24,2.69,2.69,0,0,1,1,.64,2.91,2.91,0,0,1,.61,1,6.09,6.09,0,0,1,.31,1.19,11,11,0,0,1,.11,1.33c0,.47,0,.93,0,1.38v9.73Z"/><path class="b150ff4f-e246-4365-a8c5-7c0f91c880cd" d="M193.46,367.31v-19.9h1.9v1.69a4.64,4.64,0,0,1,.36-.78,2.63,2.63,0,0,1,.54-.61,2.43,2.43,0,0,1,.73-.39,3.22,3.22,0,0,1,1-.14,4.41,4.41,0,0,1,1.54.24,2.9,2.9,0,0,1,1.05.64,3.13,3.13,0,0,1,.67,1,5.59,5.59,0,0,1,.36,1.2,9.13,9.13,0,0,1,.16,1.33q0,.69,0,1.38v4.19a20.8,20.8,0,0,1-.1,2.1,5.53,5.53,0,0,1-.47,1.85,3.12,3.12,0,0,1-1.13,1.31,3.84,3.84,0,0,1-2.1.5,2.87,2.87,0,0,1-1-.14,2.46,2.46,0,0,1-.74-.38,2.75,2.75,0,0,1-.54-.59,3.66,3.66,0,0,1-.37-.77v6.31Zm4.17-6.23a2.17,2.17,0,0,0,1.26-.31,1.89,1.89,0,0,0,.67-.85,4.17,4.17,0,0,0,.28-1.27c0-.48,0-1,0-1.53v-4.2c0-.52,0-1,0-1.49a4.2,4.2,0,0,0-.25-1.25,1.85,1.85,0,0,0-.67-.88,2.21,2.21,0,0,0-1.3-.33,2,2,0,0,0-1.13.28,1.92,1.92,0,0,0-.68.76,3.24,3.24,0,0,0-.34,1.09,8.84,8.84,0,0,0-.12,1.3v5.41a8,8,0,0,0,.12,1.22,3.16,3.16,0,0,0,.34,1.05,2,2,0,0,0,.68.73A2.1,2.1,0,0,0,197.63,361.08Z"/><path class="b150ff4f-e246-4365-a8c5-7c0f91c880cd" d="M204.79,353c0-.48,0-.95,0-1.42a8,8,0,0,1,.19-1.34,4.74,4.74,0,0,1,.42-1.2,3.26,3.26,0,0,1,.73-1,3.3,3.3,0,0,1,1.14-.63,5.16,5.16,0,0,1,1.63-.23,5,5,0,0,1,1.65.24,3.28,3.28,0,0,1,1.15.64,3,3,0,0,1,.73,1,5.16,5.16,0,0,1,.42,1.2,7.92,7.92,0,0,1,.17,1.33c0,.46,0,.92,0,1.38v4.19c0,.47,0,.94,0,1.42a8.32,8.32,0,0,1-.19,1.34,5.06,5.06,0,0,1-.41,1.19,3.06,3.06,0,0,1-.73.95,3.16,3.16,0,0,1-1.13.63,5,5,0,0,1-1.64.23,5.23,5.23,0,0,1-1.64-.23,3.34,3.34,0,0,1-1.15-.64,3.06,3.06,0,0,1-.74-1,5.78,5.78,0,0,1-.42-1.19,7.1,7.1,0,0,1-.18-1.34c0-.46,0-.92,0-1.38Zm4.15-4a2.31,2.31,0,0,0-1.27.31,1.91,1.91,0,0,0-.68.85,3.9,3.9,0,0,0-.27,1.27c0,.48-.05,1-.05,1.53v4.21c0,.51,0,1,0,1.48a3.91,3.91,0,0,0,.25,1.25,1.86,1.86,0,0,0,.68.88,2.74,2.74,0,0,0,2.57,0,1.91,1.91,0,0,0,.68-.85,3.9,3.9,0,0,0,.27-1.27c0-.48.05-1,.05-1.53v-4.2c0-.52,0-1,0-1.49a3.91,3.91,0,0,0-.25-1.25,1.86,1.86,0,0,0-.68-.88A2.21,2.21,0,0,0,208.94,349Z"/><path class="b150ff4f-e246-4365-a8c5-7c0f91c880cd" d="M215.2,347.4h2l1.92,13.48h.18l1.91-13.48h2.91L226,360.88h.17l1.92-13.48H230l-2.38,15.27h-3.07l-2-13.47h0l-1.93,13.47h-3.09Z"/><path class="b150ff4f-e246-4365-a8c5-7c0f91c880cd" d="M240.33,357.51v.27c0,.41,0,.83,0,1.24a6.43,6.43,0,0,1-.19,1.19,4,4,0,0,1-.41,1.05,2.69,2.69,0,0,1-.73.85,3.24,3.24,0,0,1-1.13.57,6,6,0,0,1-1.64.2,5.34,5.34,0,0,1-1.65-.23,3.39,3.39,0,0,1-1.14-.64,3.06,3.06,0,0,1-.74-1,5.78,5.78,0,0,1-.42-1.19,7.1,7.1,0,0,1-.18-1.34c0-.46,0-.92,0-1.38V353c0-.48,0-.95,0-1.42a9.2,9.2,0,0,1,.19-1.34,5.67,5.67,0,0,1,.42-1.2,3.13,3.13,0,0,1,.74-1,3.3,3.3,0,0,1,1.14-.63,5.21,5.21,0,0,1,1.63-.23,5.36,5.36,0,0,1,1.65.22A3.23,3.23,0,0,1,239,348a2.87,2.87,0,0,1,.73.87,4.57,4.57,0,0,1,.42,1.08,6.8,6.8,0,0,1,.17,1.2c0,.42,0,.82,0,1.22v2.58l-6.45,1.1v1.09c0,.51,0,1,0,1.48a3.91,3.91,0,0,0,.26,1.26,2,2,0,0,0,.69.88,2.22,2.22,0,0,0,1.31.33,2.62,2.62,0,0,0,1.27-.26,1.61,1.61,0,0,0,.68-.71,2.8,2.8,0,0,0,.27-1.05c0-.4,0-.82,0-1.28v-.27ZM236.18,349a2.23,2.23,0,0,0-1.27.32,2,2,0,0,0-.7.86,3.84,3.84,0,0,0-.27,1.26q-.06.72-.06,1.53v1.44l4.57-.81v-1.22c0-.43,0-.84,0-1.24a3.06,3.06,0,0,0-.26-1.08,1.74,1.74,0,0,0-.68-.77A2.48,2.48,0,0,0,236.18,349Z"/><path class="b150ff4f-e246-4365-a8c5-7c0f91c880cd" d="M249.24,349.28l-.47-.14A2.13,2.13,0,0,0,248,349h0a2,2,0,0,0-1.23.34,2.16,2.16,0,0,0-.7.92,4.19,4.19,0,0,0-.33,1.31c-.05.49-.08,1-.09,1.51v9.57h-1.88V347.41h1.88v1.79a3.78,3.78,0,0,1,.38-.81,2.39,2.39,0,0,1,.54-.64,2.48,2.48,0,0,1,.75-.42,2.93,2.93,0,0,1,1-.15,2.45,2.45,0,0,1,.46,0,2.23,2.23,0,0,1,.46.13Z"/><path class="b150ff4f-e246-4365-a8c5-7c0f91c880cd" d="M265,357.93a8.28,8.28,0,0,1-.24,2.09,4.22,4.22,0,0,1-.77,1.56,3.34,3.34,0,0,1-1.34,1,5.24,5.24,0,0,1-2,.33,5.68,5.68,0,0,1-2.25-.37,3.12,3.12,0,0,1-1.32-1,3.82,3.82,0,0,1-.62-1.59,12.89,12.89,0,0,1-.15-2.05v-.92h1.9v.85a10.13,10.13,0,0,0,.09,1.45,2.56,2.56,0,0,0,.36,1,1.62,1.62,0,0,0,.73.61,3.31,3.31,0,0,0,1.23.19,2.48,2.48,0,0,0,1.15-.23,2,2,0,0,0,.75-.65,2.8,2.8,0,0,0,.4-1,6.07,6.07,0,0,0,.12-1.24v-.13a5.57,5.57,0,0,0-.12-1.21,3.33,3.33,0,0,0-.35-1,2.72,2.72,0,0,0-.6-.76,4.78,4.78,0,0,0-.88-.65l-1.84-1.12a7.91,7.91,0,0,1-1.33-1,4.26,4.26,0,0,1-.87-1.09,4.58,4.58,0,0,1-.46-1.32,9.49,9.49,0,0,1-.14-1.7v-.26a4.91,4.91,0,0,1,1.08-3.44,4.08,4.08,0,0,1,3.17-1.18,5,5,0,0,1,1.91.33,3.4,3.4,0,0,1,1.31.93,3.91,3.91,0,0,1,.75,1.48,7.33,7.33,0,0,1,.24,1.95v1.26h-1.9l0-1.58a3.94,3.94,0,0,0-.15-1,2.21,2.21,0,0,0-.41-.81,1.74,1.74,0,0,0-.7-.55,2.54,2.54,0,0,0-1-.2,2.34,2.34,0,0,0-1.11.24,1.91,1.91,0,0,0-.73.65,2.62,2.62,0,0,0-.4.95,4.89,4.89,0,0,0-.08,1.16v.44a3.2,3.2,0,0,0,.56,1.77,4.26,4.26,0,0,0,1.41,1.28l1.77,1a6,6,0,0,1,1.29,1,4.73,4.73,0,0,1,.86,1.15,5,5,0,0,1,.51,1.35,8.88,8.88,0,0,1,.19,1.6Z"/><path class="b150ff4f-e246-4365-a8c5-7c0f91c880cd" d="M276,357.51v.27c0,.41,0,.83,0,1.24a7.4,7.4,0,0,1-.18,1.19,4,4,0,0,1-.42,1.05,2.69,2.69,0,0,1-.73.85,3.24,3.24,0,0,1-1.13.57,6,6,0,0,1-1.63.2,5.25,5.25,0,0,1-1.65-.23,3.44,3.44,0,0,1-1.15-.64,3.06,3.06,0,0,1-.74-1,5.78,5.78,0,0,1-.42-1.19,8,8,0,0,1-.18-1.34c0-.46,0-.92,0-1.38V353c0-.48,0-.95.05-1.42a8,8,0,0,1,.19-1.34,5.14,5.14,0,0,1,.41-1.2,3.09,3.09,0,0,1,1.88-1.59,6.09,6.09,0,0,1,3.28,0,3.37,3.37,0,0,1,1.15.59,3.19,3.19,0,0,1,.73.87,4.54,4.54,0,0,1,.41,1.08,7.89,7.89,0,0,1,.18,1.2c0,.42,0,.82,0,1.22v2.58l-6.44,1.1v1.09c0,.51,0,1,0,1.48a3.66,3.66,0,0,0,.26,1.26,1.86,1.86,0,0,0,.68.88,2.25,2.25,0,0,0,1.31.33,2.59,2.59,0,0,0,1.27-.26,1.61,1.61,0,0,0,.68-.71,3,3,0,0,0,.28-1.05c0-.4.05-.82.05-1.28v-.27ZM271.84,349a2.23,2.23,0,0,0-1.27.32,1.89,1.89,0,0,0-.69.86,3.6,3.6,0,0,0-.28,1.26c0,.48-.05,1-.05,1.53v1.44l4.57-.81v-1.22c0-.43,0-.84,0-1.24a3.06,3.06,0,0,0-.26-1.08,1.78,1.78,0,0,0-.67-.77A2.52,2.52,0,0,0,271.84,349Z"/><path class="b150ff4f-e246-4365-a8c5-7c0f91c880cd" d="M284.91,349.28a4,4,0,0,1-.47-.14,2.16,2.16,0,0,0-.76-.12h0a2.08,2.08,0,0,0-1.23.34,2.24,2.24,0,0,0-.7.92,4.49,4.49,0,0,0-.33,1.31,14.8,14.8,0,0,0-.08,1.51v9.57h-1.88V347.41h1.88v1.79a3.76,3.76,0,0,1,.37-.81,2.59,2.59,0,0,1,.54-.64,2.48,2.48,0,0,1,.75-.42,3,3,0,0,1,1-.15,2.42,2.42,0,0,1,.45,0,2.23,2.23,0,0,1,.46.13Z"/><path class="b150ff4f-e246-4365-a8c5-7c0f91c880cd" d="M294.81,347.4l-3.12,15.27h-2.83l-3.14-15.27h1.95l2.52,13.48h.17l2.51-13.48Z"/><path class="b150ff4f-e246-4365-a8c5-7c0f91c880cd" d="M297,343.72a1,1,0,0,1,.27-.76,1.21,1.21,0,0,1,.87-.27,1.34,1.34,0,0,1,.94.27,1,1,0,0,1,.27.76,1,1,0,0,1-.27.74,1.39,1.39,0,0,1-.94.26,1.26,1.26,0,0,1-.87-.26A1,1,0,0,1,297,343.72Zm.22,18.95V347.41h1.89v15.26Z"/><path class="b150ff4f-e246-4365-a8c5-7c0f91c880cd" d="M309,357.69h1.88v.18c0,.39,0,.78,0,1.18a7.08,7.08,0,0,1-.18,1.15,4,4,0,0,1-.41,1.05,2.86,2.86,0,0,1-.74.85,3.58,3.58,0,0,1-1.14.57,5.61,5.61,0,0,1-1.63.21,5.25,5.25,0,0,1-1.65-.23A3.44,3.44,0,0,1,304,362a3,3,0,0,1-.74-1,5.23,5.23,0,0,1-.41-1.19,9.61,9.61,0,0,1-.18-1.34c0-.46-.05-.92-.05-1.39v-4.41c0-.23,0-.47,0-.7a10.1,10.1,0,0,1,.19-1.86,4.15,4.15,0,0,1,.64-1.54,3.16,3.16,0,0,1,1.25-1.05,4.78,4.78,0,0,1,2.07-.39,5.27,5.27,0,0,1,1.65.22,3.55,3.55,0,0,1,1.15.58,2.84,2.84,0,0,1,.73.86,4.32,4.32,0,0,1,.41,1.05,6.17,6.17,0,0,1,.19,1.14c0,.4,0,.78,0,1.15v.21H309v-.21c0-.38,0-.76,0-1.14a2.61,2.61,0,0,0-.26-1,1.78,1.78,0,0,0-.69-.75,2.45,2.45,0,0,0-1.3-.29,2.25,2.25,0,0,0-1.26.31,1.79,1.79,0,0,0-.68.85,4.17,4.17,0,0,0-.28,1.27c0,.48-.05,1-.05,1.53v3.45c0,.44,0,.87,0,1.3s0,.83.06,1.23a3.77,3.77,0,0,0,.18.85,2.31,2.31,0,0,0,.38.69,1.86,1.86,0,0,0,.65.46,2.59,2.59,0,0,0,1,.17,2.46,2.46,0,0,0,1.26-.27,1.69,1.69,0,0,0,.69-.71,3,3,0,0,0,.28-1,11.76,11.76,0,0,0,.06-1.2Z"/><path class="b150ff4f-e246-4365-a8c5-7c0f91c880cd" d="M322,357.51v.27c0,.41,0,.83,0,1.24a6.43,6.43,0,0,1-.19,1.19,3.7,3.7,0,0,1-.41,1.05,2.69,2.69,0,0,1-.73.85,3.24,3.24,0,0,1-1.13.57,6,6,0,0,1-1.63.2,5.25,5.25,0,0,1-1.65-.23,3.44,3.44,0,0,1-1.15-.64,3.06,3.06,0,0,1-.74-1,5.78,5.78,0,0,1-.42-1.19,7.1,7.1,0,0,1-.18-1.34c0-.46,0-.92,0-1.38V353c0-.48,0-.95,0-1.42a9.2,9.2,0,0,1,.19-1.34,5.67,5.67,0,0,1,.42-1.2,3.09,3.09,0,0,1,1.88-1.59,6.09,6.09,0,0,1,3.28,0,3.37,3.37,0,0,1,1.15.59,3.19,3.19,0,0,1,.73.87,5,5,0,0,1,.41,1.08,7.89,7.89,0,0,1,.18,1.2c0,.42,0,.82,0,1.22v2.58l-6.44,1.1v1.09c0,.51,0,1,0,1.48a4.19,4.19,0,0,0,.26,1.26,2,2,0,0,0,.69.88,2.25,2.25,0,0,0,1.31.33,2.62,2.62,0,0,0,1.27-.26,1.61,1.61,0,0,0,.68-.71,2.8,2.8,0,0,0,.27-1.05,12.79,12.79,0,0,0,.06-1.28v-.27ZM317.85,349a2.23,2.23,0,0,0-1.27.32,1.89,1.89,0,0,0-.69.86,3.6,3.6,0,0,0-.28,1.26c0,.48-.05,1-.05,1.53v1.44l4.57-.81v-1.22c0-.43,0-.84,0-1.24a3.06,3.06,0,0,0-.26-1.08,1.74,1.74,0,0,0-.68-.77A2.48,2.48,0,0,0,317.85,349Z"/><path class="b150ff4f-e246-4365-a8c5-7c0f91c880cd" d="M332.63,358.59a6,6,0,0,1-.24,1.76,3.39,3.39,0,0,1-.73,1.35,3.46,3.46,0,0,1-1.28.87,5,5,0,0,1-1.88.31,4.72,4.72,0,0,1-2-.36,3.07,3.07,0,0,1-1.26-1,4.06,4.06,0,0,1-.64-1.53,8.89,8.89,0,0,1-.19-1.93h1.88a5.77,5.77,0,0,0,.1,1.1,2.66,2.66,0,0,0,.34,1,1.85,1.85,0,0,0,.67.69,2,2,0,0,0,1.06.26,2,2,0,0,0,1.64-.61,2.42,2.42,0,0,0,.54-1.69,2.22,2.22,0,0,0-.26-1.11,3.07,3.07,0,0,0-.69-.85,6.47,6.47,0,0,0-1-.69l-1.12-.65c-.38-.22-.75-.45-1.12-.7a5.24,5.24,0,0,1-1-.84,4.1,4.1,0,0,1-.69-1.1,3.9,3.9,0,0,1-.26-1.47,6.26,6.26,0,0,1,.23-1.76,3.36,3.36,0,0,1,.71-1.32,3.07,3.07,0,0,1,1.25-.82,5.13,5.13,0,0,1,1.81-.29,5.19,5.19,0,0,1,1.7.26,2.77,2.77,0,0,1,1.23.8,3.54,3.54,0,0,1,.75,1.4,7.75,7.75,0,0,1,.24,2.07h-1.88a6,6,0,0,0-.09-1.08,2.26,2.26,0,0,0-.33-.87,1.67,1.67,0,0,0-.63-.58,2.07,2.07,0,0,0-1-.21,2.11,2.11,0,0,0-.89.18,2,2,0,0,0-.66.48,1.94,1.94,0,0,0-.42.69,2.72,2.72,0,0,0-.14.86,2,2,0,0,0,.27,1.06,3.36,3.36,0,0,0,.7.82,6.13,6.13,0,0,0,1,.7l1.13.66c.39.22.76.45,1.13.71a4.81,4.81,0,0,1,1,.87,3.79,3.79,0,0,1,.7,1.12A3.71,3.71,0,0,1,332.63,358.59Z"/><path class="b150ff4f-e246-4365-a8c5-7c0f91c880cd" d="M335.41,361.74a1.05,1.05,0,0,1,1.2-1.18,1.11,1.11,0,0,1,1,.4,1.7,1.7,0,0,1,.28,1,5.89,5.89,0,0,1-.09,1.08,6,6,0,0,1-.25.89,4,4,0,0,1-.34.72,5.46,5.46,0,0,1-.36.56l-.91-.5c.11-.18.2-.34.28-.49a3,3,0,0,0,.2-.45c.05-.14.09-.29.13-.43a3.11,3.11,0,0,0,.07-.47A1,1,0,0,1,335.41,361.74Z"/><path class="b150ff4f-e246-4365-a8c5-7c0f91c880cd" d="M347.06,362.67V343.36H349v19.31Z"/><path class="b150ff4f-e246-4365-a8c5-7c0f91c880cd" d="M359.41,362.67v-9.75q0-.76,0-1.47a3.66,3.66,0,0,0-.23-1.25,1.88,1.88,0,0,0-.64-.89,2.17,2.17,0,0,0-1.3-.33,1.88,1.88,0,0,0-1.24.39,2.63,2.63,0,0,0-.71,1,5.39,5.39,0,0,0-.32,1.42c-.05.53-.08,1.06-.08,1.6v9.26H353V347.41h1.87v1.81a3.55,3.55,0,0,1,.44-.78,3.09,3.09,0,0,1,1.49-1.09,3.4,3.4,0,0,1,1-.16,3.86,3.86,0,0,1,1.45.24,2.66,2.66,0,0,1,1.58,1.61,5,5,0,0,1,.31,1.19,11,11,0,0,1,.12,1.33c0,.47,0,.93,0,1.38v9.73Z"/><path class="b150ff4f-e246-4365-a8c5-7c0f91c880cd" d="M371,357.69h1.88v.18c0,.39,0,.78,0,1.18a7.08,7.08,0,0,1-.19,1.15,4,4,0,0,1-.41,1.05,2.72,2.72,0,0,1-.74.85,3.58,3.58,0,0,1-1.14.57,5.56,5.56,0,0,1-1.63.21,5.34,5.34,0,0,1-1.65-.23,3.44,3.44,0,0,1-1.15-.64,3.17,3.17,0,0,1-.74-1,5.76,5.76,0,0,1-.41-1.19,9.61,9.61,0,0,1-.18-1.34c0-.46-.05-.92-.05-1.39v-4.41c0-.23,0-.47,0-.7a9.31,9.31,0,0,1,.19-1.86,4.31,4.31,0,0,1,.63-1.54,3.26,3.26,0,0,1,1.26-1.05,4.72,4.72,0,0,1,2.07-.39,5.36,5.36,0,0,1,1.65.22,3.65,3.65,0,0,1,1.15.58,2.84,2.84,0,0,1,.73.86,5.33,5.33,0,0,1,.41,1.05,5.42,5.42,0,0,1,.18,1.14c0,.4,0,.78,0,1.15v.21H371v-.21c0-.38,0-.76,0-1.14a2.61,2.61,0,0,0-.26-1,1.69,1.69,0,0,0-.68-.75,2.5,2.5,0,0,0-1.3-.29,2.27,2.27,0,0,0-1.27.31,1.85,1.85,0,0,0-.68.85,3.9,3.9,0,0,0-.27,1.27c0,.48-.05,1-.05,1.53v4.75q0,.63.06,1.23a3.77,3.77,0,0,0,.18.85,2.31,2.31,0,0,0,.38.69,1.86,1.86,0,0,0,.65.46,2.64,2.64,0,0,0,1,.17,2.44,2.44,0,0,0,1.25-.27,1.63,1.63,0,0,0,.69-.71,2.8,2.8,0,0,0,.28-1,11.76,11.76,0,0,0,.06-1.2Z"/><path class="b150ff4f-e246-4365-a8c5-7c0f91c880cd" d="M375.88,361.74a1.22,1.22,0,0,1,.28-.88,1.2,1.2,0,0,1,.91-.3,1.25,1.25,0,0,1,1,.3,1.22,1.22,0,0,1,.28.88,1.16,1.16,0,0,1-.28.85,1.25,1.25,0,0,1-1,.29,1.2,1.2,0,0,1-.91-.29A1.16,1.16,0,0,1,375.88,361.74Z"/><path class="b150ff4f-e246-4365-a8c5-7c0f91c880cd" d="M245.13,276.65,245,317.11c0,5.86-7.15,9.77-18.12,9.77-11.55,0-17.21-4.76-19.66-9.24h-13.5c0,3.23,2.7,18.37,33.35,18.37,36.47,0,34.61-17.71,34.61-17.71l.19-41.6Zm8.33,28.14a3.46,3.46,0,1,1-3.46,3.46A3.46,3.46,0,0,1,253.46,304.79Zm0,22c-3.57,3.57-10,7.48-26.37,7.48-.05,0-.58,0-1.43,0-15.08,0-21.82-4.7-25.23-8.75a12.32,12.32,0,0,1-2.45-5h6.84s3.24,9,21.08,9c.57,0,.93,0,1,0,16.16,0,23.08-6.13,23.08-12.05v-4.11h6.92v5A11.7,11.7,0,0,1,253.46,326.78ZM103,292.69c0-13.2-17.86-16.5-42.73-16.5H22v58.64H37.52V311.7H60.39l27.9,23.13H106.6L76.77,310.25C91.8,310.25,103,301.82,103,292.69Zm-73.48,12.1A3.46,3.46,0,1,1,26,308.25,3.46,3.46,0,0,1,29.48,304.79Zm4.36,28.7H25.57V313.21h8.27Zm3.68-51.25H58c19,0,29.46,1.42,29.46,10.45,0,5.08-6.15,10.06-16.29,10.06H37.52Zm18.61,22.31,10.52-.17L72.38,309l-10.72.1Zm45.07,28.32L89.53,333,63.92,311.52l10.49-.44ZM191,292.69c0-13.2-17.86-16.5-42.73-16.5H110v58.64h15.54V311.7h22.87l27.9,23.13H194.6l-29.83-24.58C179.8,310.25,191,301.82,191,292.69Zm-73.48,12.1a3.46,3.46,0,1,1-3.45,3.46A3.46,3.46,0,0,1,117.48,304.79Zm4.36,28.7h-8.27V313.21h8.27Zm3.68-51.25H146c19,0,29.46,1.42,29.46,10.45,0,5.08-6.15,10.06-16.29,10.06H125.52Zm18.61,22.31,10.52-.17,5.73,4.66-10.72.1Zm45.07,28.32-11.67.08-25.61-21.43,10.49-.44ZM358.54,276.7l-39,29.94L280.82,276.7H265.87v57.91h15.26v-41.8l31.4,25.38h14l31.4-25.38v41.8h15.26V276.7Zm-84.78,28.09a3.46,3.46,0,1,1-3.45,3.46A3.46,3.46,0,0,1,273.76,304.79Zm4.13,28.7h-8.26V313.21h8.26Zm87.85-28.7a3.46,3.46,0,1,1-3.45,3.46A3.46,3.46,0,0,1,365.74,304.79Zm4.14,28.7h-8.27V313.21h8.27Z"/></svg>