<?xml version="1.0" encoding="utf-8"?>
<!-- Generator: Adobe Illustrator 24.0.2, SVG Export Plug-In . SVG Version: 6.00 Build 0)  -->
<svg version="1.1" id="Layer_1" xmlns="http://www.w3.org/2000/svg" xmlns:xlink="http://www.w3.org/1999/xlink" x="0px" y="0px"
	 viewBox="0 0 410 130" style="enable-background:new 0 0 410 130;" xml:space="preserve">
<style type="text/css">
	.st0{fill:#008E43;}
	.st1{fill:#FFFFFF;}
	.st2{fill:#D8EEF2;}
	.st3{fill:#007C41;}
	.st4{font-family:'Poppins-SemiBold';}
	.st5{font-size:10.4392px;}
</style>
<g>
	<path class="st0" d="M111.3,103.44H27.33v3.76h83.97V103.44z M116.85,108.34H21.78v3.76h95.07V108.34z M15.98,113.24V117h106.66
		v-3.76H15.98z"/>
	<path class="st0" d="M61.6,108.3c-23.01-4.2-38.31-26.33-34.11-49.33c4.2-23.01,26.33-38.31,49.33-34.11
		c23.01,4.2,38.31,26.33,34.11,49.33C106.74,97.2,84.61,112.5,61.6,108.3z M76.12,28.72C55.24,24.91,35.16,38.8,31.35,59.68
		s10.08,40.96,30.96,44.77c20.88,3.81,40.96-10.08,44.77-30.96C110.89,52.61,97,32.52,76.12,28.72z"/>
	<g>
		<path class="st0" d="M29.06,96.42l-1.11-1.61c-0.2-0.29-0.33-0.56-0.38-0.8c-0.05-0.24-0.05-0.46-0.01-0.66
			c0.05-0.2,0.13-0.37,0.25-0.51c0.12-0.15,0.25-0.27,0.4-0.37c0.15-0.1,0.3-0.17,0.48-0.21c0.17-0.04,0.35-0.05,0.52-0.03
			c0.18,0.02,0.35,0.07,0.52,0.16c0.17,0.09,0.33,0.21,0.46,0.37l1.18-2.74l0.54,0.77l-1.21,2.55l0.48,0.69l2.01-1.4l0.43,0.62
			L29.06,96.42z M30.64,94.41l-0.56-0.81c-0.08-0.12-0.18-0.23-0.28-0.34s-0.21-0.19-0.33-0.24c-0.12-0.06-0.24-0.08-0.38-0.07
			c-0.14,0.01-0.28,0.07-0.44,0.18c-0.15,0.11-0.26,0.22-0.32,0.34c-0.06,0.12-0.08,0.25-0.07,0.38c0.01,0.13,0.05,0.26,0.11,0.39
			c0.06,0.13,0.14,0.26,0.22,0.38l0.56,0.81L30.64,94.41z"/>
		<path class="st0" d="M29.36,89.68c0.14-0.08,0.25-0.18,0.34-0.31c0.08-0.13,0.14-0.26,0.17-0.41c0.03-0.15,0.03-0.3,0-0.46
			c-0.03-0.16-0.08-0.31-0.16-0.45c-0.11-0.19-0.24-0.34-0.41-0.43c-0.17-0.09-0.36-0.16-0.57-0.2l0.1-0.66
			c0.63,0.1,1.12,0.46,1.46,1.08c0.14,0.26,0.22,0.51,0.25,0.77c0.03,0.25,0,0.5-0.07,0.73c-0.07,0.23-0.19,0.44-0.36,0.63
			c-0.17,0.19-0.37,0.36-0.61,0.49c-0.24,0.13-0.49,0.21-0.75,0.24c-0.25,0.03-0.5,0.01-0.74-0.05c-0.24-0.07-0.45-0.18-0.65-0.34
			c-0.2-0.16-0.37-0.36-0.5-0.6c-0.16-0.29-0.24-0.56-0.25-0.82c-0.01-0.25,0.03-0.49,0.13-0.71c0.09-0.22,0.22-0.41,0.4-0.58
			s0.36-0.31,0.58-0.43l0.22-0.12L29.36,89.68z M27.8,88c-0.13,0.08-0.25,0.17-0.34,0.27c-0.09,0.1-0.16,0.21-0.2,0.34
			c-0.04,0.12-0.06,0.26-0.04,0.4c0.02,0.14,0.07,0.29,0.15,0.45c0.08,0.15,0.19,0.27,0.31,0.37c0.13,0.09,0.26,0.16,0.4,0.2
			c0.14,0.04,0.28,0.05,0.42,0.03c0.14-0.01,0.26-0.05,0.37-0.11L27.8,88z"/>
		<path class="st0" d="M25.61,84.77c-0.06,0.12-0.1,0.25-0.12,0.39c-0.02,0.14,0.01,0.29,0.08,0.46c0.07,0.15,0.16,0.27,0.27,0.36
			c0.11,0.08,0.23,0.1,0.36,0.05c0.1-0.04,0.17-0.11,0.2-0.2c0.03-0.09,0.05-0.19,0.05-0.29c0-0.11-0.01-0.21-0.04-0.32
			c-0.02-0.11-0.05-0.2-0.06-0.28c-0.03-0.15-0.04-0.3-0.05-0.44c-0.01-0.14,0.01-0.28,0.05-0.4c0.04-0.12,0.1-0.23,0.19-0.33
			s0.21-0.18,0.37-0.25c0.19-0.08,0.37-0.11,0.54-0.09c0.17,0.02,0.33,0.08,0.47,0.17c0.14,0.09,0.27,0.21,0.38,0.36
			c0.11,0.15,0.2,0.31,0.28,0.47c0.12,0.28,0.19,0.55,0.2,0.8c0.01,0.25-0.07,0.51-0.22,0.78l-0.62-0.31
			c0.06-0.15,0.1-0.31,0.13-0.47c0.02-0.16,0-0.34-0.09-0.53c-0.04-0.08-0.08-0.16-0.13-0.24c-0.05-0.08-0.11-0.14-0.18-0.19
			c-0.06-0.05-0.13-0.08-0.21-0.1c-0.07-0.02-0.15-0.01-0.22,0.02c-0.1,0.04-0.16,0.11-0.2,0.19c-0.04,0.09-0.05,0.18-0.05,0.28
			c0,0.1,0.01,0.2,0.03,0.3c0.02,0.1,0.04,0.19,0.05,0.27c0.03,0.16,0.05,0.3,0.06,0.45s0,0.28-0.03,0.41s-0.09,0.24-0.17,0.35
			c-0.09,0.11-0.21,0.2-0.37,0.27c-0.18,0.08-0.35,0.11-0.51,0.09c-0.16-0.02-0.32-0.07-0.46-0.15c-0.14-0.08-0.27-0.2-0.38-0.33
			c-0.11-0.14-0.2-0.28-0.27-0.44c-0.1-0.23-0.15-0.47-0.16-0.72c-0.01-0.25,0.06-0.48,0.21-0.69L25.61,84.77z"/>
		<path class="st0" d="M24.02,83.35l-0.22-0.67l0.51-0.17l0-0.01c-0.23-0.07-0.44-0.2-0.61-0.39c-0.18-0.19-0.31-0.41-0.38-0.65
			c-0.09-0.27-0.12-0.54-0.1-0.79s0.09-0.48,0.21-0.69c0.12-0.21,0.28-0.4,0.47-0.56c0.2-0.16,0.43-0.28,0.69-0.36
			c0.26-0.09,0.52-0.12,0.78-0.11c0.25,0.01,0.49,0.07,0.71,0.17c0.22,0.1,0.41,0.25,0.58,0.44c0.17,0.19,0.29,0.42,0.38,0.69
			c0.08,0.25,0.11,0.51,0.07,0.77c-0.03,0.26-0.12,0.48-0.27,0.66l0,0.02l2.61-0.86l0.22,0.67L24.02,83.35z M23.95,81.34
			c0.06,0.18,0.14,0.33,0.25,0.45c0.11,0.12,0.23,0.22,0.37,0.28c0.14,0.07,0.29,0.1,0.46,0.11c0.17,0,0.34-0.02,0.52-0.08
			c0.18-0.06,0.34-0.14,0.47-0.25c0.13-0.11,0.24-0.22,0.31-0.36s0.12-0.28,0.13-0.45c0.02-0.16-0.01-0.34-0.07-0.51
			c-0.06-0.18-0.14-0.33-0.25-0.45c-0.11-0.12-0.23-0.22-0.37-0.28c-0.14-0.07-0.29-0.1-0.46-0.11c-0.17,0-0.34,0.02-0.52,0.08
			c-0.18,0.06-0.34,0.14-0.47,0.25c-0.13,0.11-0.24,0.22-0.31,0.36c-0.07,0.13-0.12,0.28-0.13,0.45
			C23.87,80.99,23.89,81.16,23.95,81.34z"/>
		<path class="st0" d="M24.31,78.09c-0.27,0.06-0.52,0.06-0.78,0.01c-0.25-0.05-0.48-0.15-0.69-0.28c-0.21-0.14-0.39-0.31-0.54-0.53
			s-0.25-0.46-0.31-0.73c-0.06-0.27-0.06-0.53-0.01-0.79c0.05-0.26,0.14-0.49,0.28-0.7s0.31-0.39,0.52-0.54
			c0.21-0.15,0.45-0.25,0.71-0.31c0.27-0.06,0.53-0.06,0.78-0.01c0.25,0.05,0.48,0.15,0.69,0.28c0.21,0.14,0.39,0.31,0.54,0.53
			s0.25,0.46,0.31,0.73c0.06,0.27,0.06,0.53,0.01,0.79c-0.05,0.26-0.14,0.49-0.28,0.7c-0.13,0.21-0.31,0.39-0.52,0.54
			C24.81,77.93,24.57,78.04,24.31,78.09z M24.15,77.36c0.18-0.04,0.35-0.1,0.49-0.19c0.14-0.09,0.26-0.2,0.35-0.32
			c0.09-0.13,0.15-0.27,0.18-0.43c0.03-0.16,0.03-0.34-0.01-0.52c-0.04-0.19-0.11-0.34-0.2-0.48c-0.09-0.14-0.21-0.24-0.34-0.32
			c-0.13-0.08-0.28-0.13-0.45-0.15c-0.17-0.02-0.34-0.02-0.53,0.02c-0.18,0.04-0.35,0.1-0.49,0.19c-0.14,0.09-0.26,0.2-0.35,0.32
			c-0.09,0.12-0.15,0.27-0.18,0.43c-0.03,0.16-0.03,0.34,0.01,0.52c0.04,0.18,0.11,0.34,0.2,0.48c0.1,0.13,0.21,0.24,0.34,0.32
			c0.13,0.08,0.28,0.13,0.45,0.16C23.79,77.4,23.97,77.4,24.15,77.36z"/>
		<path class="st0" d="M21.48,73.25l-0.07-0.7l0.57-0.06l0-0.02c-0.21-0.07-0.38-0.2-0.53-0.41c-0.15-0.2-0.23-0.45-0.26-0.74
			c-0.02-0.18-0.01-0.35,0.03-0.52c0.04-0.17,0.11-0.32,0.21-0.46s0.24-0.25,0.41-0.34c0.17-0.09,0.38-0.15,0.63-0.18l2.38-0.25
			l0.07,0.7l-2.18,0.23c-0.17,0.02-0.32,0.06-0.43,0.12c-0.12,0.06-0.21,0.13-0.28,0.22c-0.07,0.09-0.11,0.18-0.13,0.29
			c-0.02,0.11-0.03,0.21-0.02,0.32c0.02,0.15,0.05,0.28,0.11,0.4c0.06,0.12,0.15,0.22,0.26,0.3c0.11,0.08,0.25,0.14,0.41,0.18
			c0.16,0.04,0.35,0.04,0.56,0.02l1.9-0.2l0.07,0.7L21.48,73.25z"/>
		<path class="st0" d="M21.97,66.52c-0.1,0.09-0.19,0.19-0.26,0.31c-0.07,0.12-0.1,0.28-0.1,0.45c0,0.17,0.04,0.31,0.11,0.43
			c0.07,0.12,0.18,0.18,0.31,0.18c0.11,0,0.2-0.04,0.27-0.11c0.07-0.07,0.12-0.16,0.16-0.25c0.04-0.1,0.07-0.2,0.09-0.31
			c0.02-0.11,0.04-0.2,0.05-0.28c0.03-0.15,0.08-0.29,0.13-0.43c0.05-0.13,0.12-0.25,0.2-0.35c0.08-0.1,0.18-0.18,0.3-0.23
			c0.12-0.06,0.27-0.09,0.44-0.09c0.21,0,0.39,0.04,0.54,0.12s0.27,0.2,0.37,0.34c0.1,0.14,0.17,0.3,0.21,0.48
			c0.04,0.18,0.07,0.36,0.07,0.54c0,0.31-0.04,0.58-0.13,0.81c-0.09,0.23-0.26,0.44-0.51,0.63l-0.45-0.53
			c0.11-0.12,0.21-0.25,0.3-0.39c0.09-0.14,0.13-0.32,0.12-0.52c0-0.09-0.01-0.18-0.03-0.27c-0.02-0.09-0.05-0.17-0.09-0.24
			c-0.04-0.07-0.09-0.13-0.15-0.17c-0.06-0.04-0.13-0.07-0.21-0.07c-0.1,0-0.19,0.04-0.26,0.1c-0.07,0.07-0.12,0.15-0.16,0.24
			c-0.04,0.09-0.07,0.19-0.09,0.29c-0.02,0.1-0.04,0.19-0.05,0.27c-0.03,0.15-0.07,0.3-0.12,0.43c-0.04,0.14-0.11,0.26-0.18,0.36
			c-0.08,0.11-0.17,0.19-0.29,0.26c-0.12,0.07-0.27,0.1-0.45,0.1c-0.19,0-0.36-0.03-0.51-0.11c-0.14-0.08-0.27-0.18-0.36-0.32
			c-0.1-0.13-0.17-0.28-0.22-0.45c-0.05-0.17-0.08-0.34-0.08-0.51c0-0.25,0.04-0.49,0.13-0.72c0.09-0.23,0.24-0.42,0.46-0.56
			L21.97,66.52z"/>
		<path class="st0" d="M19.74,64.74c-0.14-0.01-0.26-0.06-0.36-0.17c-0.1-0.11-0.14-0.23-0.14-0.37c0.01-0.14,0.06-0.26,0.17-0.36
			c0.11-0.1,0.23-0.14,0.37-0.14s0.26,0.06,0.36,0.17c0.1,0.11,0.14,0.23,0.14,0.37c-0.01,0.14-0.06,0.26-0.17,0.36
			C20,64.7,19.88,64.74,19.74,64.74z M21.08,64.63l0.03-0.7l3.71,0.17l-0.03,0.7L21.08,64.63z"/>
		<path class="st0" d="M18.99,62.11l0.09-0.7l2.72,0.34l0-0.02c-0.18-0.15-0.31-0.35-0.39-0.59c-0.08-0.25-0.11-0.5-0.07-0.77
			c0.04-0.29,0.12-0.54,0.24-0.76c0.13-0.22,0.29-0.4,0.48-0.54c0.19-0.14,0.42-0.24,0.66-0.3c0.25-0.06,0.51-0.07,0.78-0.04
			c0.28,0.03,0.52,0.11,0.75,0.23c0.22,0.12,0.41,0.27,0.57,0.45c0.16,0.19,0.27,0.4,0.34,0.64s0.09,0.51,0.05,0.79
			c-0.03,0.25-0.12,0.48-0.25,0.71c-0.14,0.22-0.31,0.39-0.53,0.5l0,0.02l0.53,0.07l-0.09,0.7L18.99,62.11z M24.55,60.86
			c0.02-0.19,0.01-0.36-0.03-0.52c-0.05-0.16-0.12-0.3-0.22-0.41c-0.1-0.12-0.22-0.22-0.38-0.29c-0.15-0.08-0.32-0.13-0.51-0.15
			c-0.19-0.02-0.36-0.02-0.53,0.02c-0.17,0.04-0.31,0.1-0.43,0.19c-0.12,0.09-0.23,0.21-0.31,0.35c-0.08,0.14-0.14,0.31-0.16,0.49
			c-0.02,0.19-0.01,0.36,0.03,0.52c0.05,0.16,0.12,0.3,0.22,0.41c0.1,0.12,0.22,0.21,0.38,0.29c0.15,0.08,0.32,0.13,0.51,0.15
			c0.19,0.02,0.36,0.02,0.53-0.02c0.17-0.04,0.31-0.1,0.43-0.19c0.12-0.09,0.23-0.2,0.31-0.35C24.47,61.21,24.52,61.05,24.55,60.86z
			"/>
		<path class="st0" d="M19.77,56.79l0.14-0.69l5.81,1.18l-0.14,0.69L19.77,56.79z"/>
		<path class="st0" d="M24.57,55.11c0.16,0.04,0.31,0.05,0.46,0.02c0.15-0.03,0.28-0.09,0.4-0.18c0.12-0.08,0.23-0.19,0.32-0.33
			s0.16-0.28,0.2-0.43c0.06-0.21,0.06-0.41,0.01-0.59c-0.05-0.18-0.14-0.36-0.27-0.54l0.54-0.4c0.38,0.51,0.48,1.11,0.29,1.79
			c-0.08,0.28-0.2,0.52-0.36,0.73c-0.16,0.2-0.35,0.36-0.56,0.47c-0.21,0.11-0.45,0.18-0.7,0.2c-0.25,0.02-0.51-0.01-0.78-0.08
			c-0.27-0.07-0.5-0.19-0.7-0.35c-0.2-0.16-0.37-0.34-0.49-0.55c-0.12-0.21-0.2-0.44-0.23-0.69c-0.03-0.25-0.01-0.51,0.06-0.78
			c0.09-0.32,0.22-0.57,0.39-0.76c0.17-0.19,0.37-0.33,0.59-0.42c0.22-0.09,0.45-0.14,0.69-0.14c0.24,0,0.48,0.03,0.71,0.1
			l0.24,0.07L24.57,55.11z M24.63,52.81c-0.15-0.04-0.3-0.05-0.44-0.04c-0.14,0.01-0.27,0.04-0.38,0.1
			c-0.12,0.06-0.22,0.15-0.31,0.26c-0.09,0.11-0.16,0.25-0.21,0.43c-0.05,0.17-0.06,0.33-0.03,0.48c0.02,0.16,0.07,0.3,0.15,0.42
			c0.07,0.12,0.17,0.23,0.27,0.32s0.22,0.15,0.34,0.18L24.63,52.81z"/>
		<path class="st0" d="M29.31,47.22c-0.18,0.38-0.42,0.7-0.71,0.96c-0.29,0.25-0.61,0.44-0.95,0.55c-0.35,0.11-0.71,0.16-1.09,0.13
			c-0.38-0.02-0.76-0.13-1.13-0.31c-0.37-0.18-0.69-0.41-0.94-0.69c-0.26-0.29-0.45-0.6-0.57-0.94c-0.12-0.34-0.18-0.7-0.16-1.09
			c0.02-0.38,0.12-0.77,0.31-1.15s0.42-0.7,0.71-0.95c0.29-0.26,0.61-0.44,0.95-0.56c0.35-0.11,0.71-0.16,1.09-0.13
			c0.38,0.03,0.76,0.13,1.13,0.31c0.37,0.18,0.69,0.41,0.94,0.7c0.26,0.28,0.45,0.6,0.57,0.94c0.12,0.34,0.18,0.71,0.16,1.09
			C29.59,46.46,29.49,46.84,29.31,47.22z M28.67,46.92c0.14-0.29,0.21-0.57,0.22-0.85c0.01-0.28-0.04-0.55-0.14-0.8
			c-0.1-0.25-0.25-0.48-0.45-0.69c-0.2-0.21-0.44-0.38-0.71-0.51c-0.27-0.13-0.55-0.21-0.84-0.24c-0.29-0.03-0.56,0-0.82,0.07
			c-0.26,0.08-0.5,0.21-0.71,0.39c-0.22,0.18-0.4,0.41-0.53,0.7c-0.14,0.29-0.21,0.57-0.22,0.85c-0.01,0.28,0.04,0.55,0.14,0.8
			c0.1,0.25,0.25,0.48,0.45,0.69c0.2,0.21,0.44,0.38,0.71,0.51c0.27,0.13,0.55,0.21,0.84,0.24c0.29,0.03,0.56,0,0.82-0.07
			c0.26-0.08,0.5-0.21,0.71-0.39C28.35,47.43,28.53,47.2,28.67,46.92z"/>
		<path class="st0" d="M27.6,42.16l0.44-0.69l3,0.59l-1.82-2.43L29.61,39l2.35,3.23l-0.42,0.65L27.6,42.16z"/>
		<path class="st0" d="M32.23,39.03c0.13,0.1,0.27,0.16,0.41,0.19c0.15,0.02,0.29,0.02,0.44-0.01c0.15-0.03,0.29-0.09,0.42-0.18
			c0.13-0.09,0.25-0.2,0.35-0.32c0.14-0.17,0.21-0.35,0.23-0.55c0.02-0.19,0-0.39-0.04-0.6l0.65-0.17c0.16,0.62,0.02,1.21-0.41,1.77
			c-0.18,0.23-0.38,0.41-0.61,0.54c-0.22,0.13-0.46,0.2-0.7,0.22c-0.24,0.02-0.48,0-0.72-0.08c-0.24-0.08-0.47-0.2-0.69-0.37
			c-0.22-0.17-0.39-0.37-0.52-0.59c-0.13-0.22-0.21-0.45-0.24-0.7c-0.03-0.24-0.02-0.48,0.05-0.73c0.07-0.25,0.18-0.48,0.36-0.7
			c0.2-0.26,0.42-0.44,0.65-0.55c0.23-0.11,0.46-0.16,0.7-0.16c0.24,0,0.47,0.04,0.69,0.13c0.22,0.09,0.43,0.21,0.62,0.36l0.2,0.16
			L32.23,39.03z M33.15,36.93c-0.13-0.09-0.26-0.16-0.39-0.21c-0.13-0.04-0.26-0.06-0.39-0.05c-0.13,0.01-0.26,0.05-0.38,0.12
			s-0.24,0.18-0.35,0.32c-0.11,0.14-0.18,0.28-0.21,0.43c-0.04,0.16-0.04,0.3-0.02,0.45c0.02,0.14,0.07,0.27,0.13,0.4
			s0.15,0.22,0.25,0.3L33.15,36.93z"/>
		<path class="st0" d="M33.25,34.44l0.48-0.52l0.42,0.39l0.01-0.01c-0.04-0.1-0.06-0.21-0.07-0.32c-0.01-0.11,0-0.22,0.03-0.33
			c0.02-0.11,0.06-0.22,0.12-0.33c0.05-0.11,0.12-0.2,0.2-0.29c0.08-0.08,0.16-0.15,0.25-0.2l0.54,0.54
			c-0.05,0.03-0.1,0.07-0.15,0.1c-0.05,0.03-0.09,0.07-0.13,0.11c-0.23,0.25-0.34,0.51-0.33,0.78c0.02,0.27,0.18,0.54,0.48,0.81
			l1.37,1.27l-0.48,0.52L33.25,34.44z"/>
		<path class="st0" d="M37.57,31.41c-0.13-0.02-0.27-0.01-0.4,0.02c-0.14,0.03-0.27,0.11-0.4,0.23c-0.12,0.11-0.2,0.24-0.25,0.38
			c-0.04,0.13-0.02,0.25,0.08,0.35c0.07,0.08,0.16,0.12,0.26,0.12c0.1,0,0.2-0.02,0.3-0.05c0.1-0.03,0.2-0.08,0.29-0.14
			c0.09-0.06,0.18-0.11,0.24-0.15c0.14-0.08,0.27-0.14,0.4-0.2c0.13-0.05,0.26-0.08,0.39-0.09c0.13,0,0.25,0.02,0.38,0.07
			c0.12,0.05,0.24,0.14,0.36,0.26c0.14,0.15,0.23,0.31,0.27,0.48c0.04,0.17,0.04,0.34,0,0.5c-0.04,0.16-0.11,0.33-0.21,0.48
			c-0.1,0.15-0.22,0.29-0.36,0.42c-0.22,0.21-0.45,0.36-0.69,0.45c-0.23,0.09-0.5,0.11-0.81,0.05l0.09-0.69
			c0.16,0.01,0.33-0.01,0.49-0.04c0.16-0.03,0.32-0.12,0.47-0.25c0.07-0.06,0.12-0.13,0.18-0.2c0.05-0.08,0.09-0.15,0.12-0.23
			c0.02-0.08,0.03-0.15,0.02-0.23c-0.01-0.07-0.04-0.14-0.09-0.2c-0.07-0.08-0.15-0.12-0.25-0.12c-0.09-0.01-0.19,0.01-0.28,0.04
			c-0.09,0.03-0.19,0.08-0.28,0.13c-0.09,0.05-0.17,0.1-0.24,0.14c-0.14,0.08-0.27,0.14-0.4,0.2c-0.13,0.06-0.26,0.09-0.39,0.11
			c-0.13,0.02-0.26,0-0.39-0.05c-0.13-0.05-0.25-0.13-0.37-0.26c-0.13-0.14-0.22-0.29-0.26-0.45c-0.04-0.16-0.04-0.32-0.01-0.48
			c0.03-0.16,0.1-0.32,0.19-0.47c0.09-0.15,0.2-0.29,0.33-0.4c0.18-0.17,0.39-0.3,0.62-0.39c0.23-0.09,0.47-0.1,0.72-0.03
			L37.57,31.41z"/>
		<path class="st0" d="M40.12,30.77c0.1,0.13,0.22,0.22,0.36,0.29c0.14,0.06,0.28,0.1,0.43,0.1c0.15,0,0.3-0.02,0.45-0.07
			c0.15-0.05,0.29-0.13,0.42-0.23c0.17-0.13,0.29-0.29,0.36-0.47c0.07-0.18,0.1-0.38,0.1-0.59l0.67-0.01c0,0.64-0.28,1.18-0.83,1.61
			c-0.23,0.18-0.47,0.3-0.72,0.37c-0.25,0.07-0.49,0.08-0.73,0.04c-0.24-0.04-0.46-0.12-0.68-0.25c-0.22-0.13-0.41-0.31-0.58-0.53
			c-0.17-0.22-0.29-0.45-0.36-0.7c-0.07-0.25-0.09-0.49-0.07-0.74c0.03-0.24,0.1-0.47,0.23-0.7c0.12-0.22,0.3-0.42,0.51-0.59
			c0.26-0.2,0.51-0.33,0.76-0.38c0.25-0.05,0.49-0.04,0.72,0.01c0.23,0.06,0.44,0.16,0.64,0.3c0.19,0.14,0.37,0.31,0.51,0.5
			l0.15,0.2L40.12,30.77z M41.53,28.96c-0.1-0.12-0.21-0.22-0.32-0.29c-0.12-0.08-0.24-0.12-0.37-0.15
			c-0.13-0.02-0.26-0.01-0.4,0.02c-0.14,0.04-0.28,0.11-0.42,0.22c-0.14,0.11-0.24,0.23-0.31,0.37c-0.07,0.14-0.12,0.28-0.13,0.43
			s0,0.28,0.03,0.42c0.04,0.14,0.09,0.25,0.17,0.35L41.53,28.96z"/>
		<path class="st0" d="M42.52,26.9c0.07-0.26,0.19-0.5,0.36-0.72c0.17-0.22,0.37-0.39,0.59-0.53c0.23-0.15,0.45-0.24,0.65-0.29
			s0.39-0.06,0.55-0.03c0.17,0.03,0.32,0.09,0.45,0.19c0.13,0.09,0.24,0.21,0.33,0.35l1.01,1.6c0.07,0.11,0.14,0.21,0.2,0.3
			c0.06,0.09,0.13,0.17,0.19,0.25l-0.53,0.34c-0.11-0.15-0.22-0.31-0.32-0.47l-0.01,0.01c0,0.29-0.07,0.53-0.2,0.73
			s-0.31,0.37-0.55,0.52c-0.15,0.09-0.3,0.16-0.45,0.2c-0.16,0.04-0.31,0.06-0.46,0.04c-0.15-0.02-0.29-0.07-0.42-0.15
			c-0.13-0.08-0.25-0.2-0.34-0.35c-0.13-0.2-0.19-0.4-0.19-0.6c0-0.19,0.06-0.38,0.16-0.57c0.1-0.19,0.25-0.36,0.43-0.53
			c0.19-0.17,0.4-0.33,0.64-0.48l0.44-0.28l-0.08-0.13c-0.05-0.08-0.12-0.15-0.2-0.21c-0.08-0.06-0.17-0.1-0.28-0.13
			c-0.1-0.02-0.21-0.03-0.33-0.01c-0.12,0.02-0.24,0.07-0.37,0.15c-0.11,0.07-0.21,0.15-0.28,0.22c-0.07,0.08-0.13,0.15-0.18,0.23
			c-0.05,0.08-0.09,0.16-0.12,0.24c-0.03,0.08-0.06,0.16-0.09,0.23L42.52,26.9z M44.99,27.08c-0.14,0.09-0.28,0.19-0.42,0.3
			c-0.14,0.11-0.25,0.22-0.35,0.34c-0.09,0.12-0.15,0.25-0.18,0.38c-0.03,0.13,0,0.25,0.08,0.38c0.11,0.18,0.26,0.27,0.43,0.28
			c0.17,0,0.36-0.06,0.57-0.19c0.16-0.1,0.29-0.22,0.36-0.35c0.08-0.13,0.13-0.26,0.14-0.39c0.01-0.13,0-0.26-0.03-0.39
			s-0.09-0.25-0.16-0.35l-0.13-0.2L44.99,27.08z"/>
		<path class="st0" d="M48.24,24.13c-0.12-0.05-0.25-0.08-0.4-0.09c-0.14-0.01-0.29,0.03-0.45,0.11c-0.15,0.08-0.26,0.17-0.34,0.29
			c-0.08,0.12-0.08,0.24-0.02,0.36c0.05,0.1,0.12,0.16,0.22,0.19c0.09,0.03,0.19,0.04,0.3,0.03c0.11-0.01,0.21-0.03,0.32-0.06
			c0.11-0.03,0.2-0.06,0.28-0.08c0.15-0.04,0.3-0.06,0.44-0.08c0.14-0.02,0.28-0.01,0.4,0.02c0.12,0.03,0.24,0.09,0.34,0.17
			c0.1,0.08,0.2,0.2,0.27,0.35c0.1,0.19,0.14,0.36,0.13,0.54c-0.01,0.17-0.06,0.33-0.14,0.48c-0.08,0.15-0.19,0.28-0.33,0.4
			c-0.14,0.12-0.29,0.22-0.46,0.31c-0.27,0.14-0.54,0.22-0.79,0.25c-0.25,0.02-0.51-0.03-0.79-0.17l0.27-0.63
			c0.16,0.05,0.32,0.08,0.48,0.09c0.17,0.02,0.34-0.02,0.52-0.12c0.08-0.04,0.15-0.09,0.23-0.15c0.07-0.06,0.13-0.12,0.18-0.19
			c0.04-0.07,0.07-0.14,0.09-0.21s0-0.15-0.04-0.21c-0.05-0.09-0.12-0.16-0.21-0.19c-0.09-0.03-0.18-0.04-0.28-0.03
			c-0.1,0.01-0.2,0.02-0.3,0.05c-0.1,0.03-0.19,0.05-0.27,0.07c-0.15,0.04-0.3,0.07-0.44,0.09c-0.14,0.02-0.28,0.02-0.41,0
			c-0.13-0.02-0.25-0.07-0.36-0.15c-0.11-0.08-0.21-0.2-0.29-0.35c-0.09-0.17-0.13-0.34-0.12-0.51c0.01-0.16,0.05-0.32,0.12-0.47
			c0.07-0.14,0.18-0.28,0.31-0.4c0.13-0.12,0.27-0.22,0.42-0.3c0.22-0.11,0.46-0.18,0.71-0.21c0.25-0.02,0.48,0.03,0.7,0.16
			L48.24,24.13z"/>
		<path class="st0" d="M51.49,19.61l1.07-0.34l2.94,3.48l0.03-0.01l0.41-4.54l1.07-0.34l1.66,5.3l-0.72,0.23l-1.37-4.35l-0.02,0.01
			l-0.42,4.91l-0.48,0.15l-3.16-3.79l-0.02,0.01l1.37,4.35l-0.72,0.23L51.49,19.61z"/>
		<path class="st0" d="M59.37,19.74c0.16-0.21,0.37-0.39,0.61-0.53c0.24-0.14,0.49-0.23,0.75-0.27c0.27-0.05,0.5-0.06,0.71-0.02
			c0.2,0.03,0.38,0.09,0.52,0.18c0.14,0.09,0.26,0.2,0.34,0.34c0.09,0.14,0.14,0.29,0.17,0.44l0.33,1.87
			c0.02,0.13,0.05,0.25,0.07,0.35c0.02,0.11,0.05,0.21,0.08,0.3l-0.62,0.11c-0.05-0.18-0.09-0.37-0.12-0.55l-0.02,0
			c-0.11,0.26-0.26,0.46-0.46,0.6c-0.19,0.14-0.43,0.23-0.71,0.28c-0.17,0.03-0.34,0.04-0.5,0.02c-0.16-0.02-0.31-0.07-0.44-0.14
			c-0.13-0.07-0.24-0.17-0.34-0.29c-0.09-0.12-0.15-0.28-0.18-0.46c-0.04-0.24-0.02-0.44,0.05-0.62c0.08-0.18,0.2-0.33,0.36-0.47
			c0.16-0.13,0.37-0.24,0.6-0.33c0.24-0.09,0.49-0.16,0.77-0.21l0.51-0.09l-0.03-0.16c-0.02-0.09-0.05-0.18-0.1-0.27
			c-0.05-0.09-0.12-0.16-0.21-0.22c-0.09-0.06-0.19-0.11-0.3-0.13c-0.12-0.02-0.25-0.02-0.4,0c-0.13,0.02-0.25,0.06-0.34,0.1
			c-0.1,0.04-0.18,0.09-0.26,0.15c-0.08,0.05-0.14,0.11-0.2,0.18c-0.06,0.06-0.11,0.12-0.17,0.18L59.37,19.74z M61.6,20.84
			c-0.17,0.03-0.33,0.07-0.5,0.12c-0.17,0.05-0.32,0.11-0.45,0.19c-0.13,0.08-0.24,0.17-0.31,0.28c-0.07,0.11-0.1,0.24-0.07,0.38
			c0.04,0.21,0.14,0.35,0.29,0.42c0.16,0.07,0.36,0.08,0.6,0.04c0.19-0.03,0.35-0.09,0.47-0.18c0.12-0.09,0.22-0.19,0.28-0.31
			c0.06-0.12,0.1-0.24,0.12-0.38c0.01-0.13,0.01-0.26-0.01-0.38l-0.04-0.23L61.6,20.84z"/>
		<path class="st0" d="M63.71,18.57l0.7-0.06l0.05,0.57l0.02,0c0.07-0.2,0.21-0.38,0.42-0.52c0.21-0.14,0.46-0.22,0.74-0.25
			c0.18-0.01,0.35,0,0.52,0.04c0.17,0.04,0.32,0.11,0.45,0.22c0.13,0.11,0.24,0.25,0.33,0.42c0.09,0.17,0.14,0.38,0.16,0.63
			l0.19,2.38l-0.7,0.06l-0.18-2.19c-0.01-0.17-0.05-0.32-0.11-0.43c-0.06-0.12-0.13-0.21-0.21-0.28c-0.08-0.07-0.18-0.12-0.28-0.14
			c-0.1-0.02-0.21-0.03-0.32-0.02c-0.15,0.01-0.28,0.05-0.4,0.1c-0.12,0.06-0.22,0.14-0.31,0.25c-0.09,0.11-0.15,0.25-0.19,0.4
			c-0.04,0.16-0.05,0.35-0.03,0.56l0.15,1.91l-0.7,0.06L63.71,18.57z"/>
		<path class="st0" d="M68.52,18.25l0.71,0.02l-0.01,0.53h0.02c0.14-0.2,0.33-0.35,0.57-0.45c0.24-0.11,0.49-0.16,0.74-0.15
			c0.29,0.01,0.55,0.06,0.78,0.17c0.23,0.11,0.43,0.25,0.59,0.43c0.16,0.18,0.28,0.39,0.37,0.63c0.08,0.24,0.12,0.5,0.12,0.77
			c-0.01,0.28-0.06,0.53-0.15,0.77c-0.09,0.24-0.22,0.44-0.39,0.61c-0.17,0.17-0.37,0.3-0.6,0.4s-0.5,0.14-0.78,0.13
			c-0.27-0.01-0.52-0.07-0.75-0.19c-0.23-0.12-0.41-0.27-0.53-0.47h-0.02l-0.06,2.74l-0.71-0.02L68.52,18.25z M70.44,18.85
			c-0.19,0-0.36,0.02-0.51,0.09c-0.15,0.06-0.28,0.15-0.39,0.26c-0.11,0.11-0.19,0.25-0.25,0.4c-0.06,0.16-0.09,0.33-0.1,0.52
			c0,0.19,0.02,0.36,0.07,0.52c0.05,0.16,0.13,0.3,0.23,0.41c0.1,0.11,0.23,0.21,0.38,0.28c0.15,0.07,0.32,0.1,0.51,0.11
			c0.19,0,0.36-0.02,0.51-0.09c0.15-0.06,0.28-0.15,0.39-0.26c0.11-0.11,0.19-0.25,0.25-0.4c0.06-0.16,0.09-0.33,0.1-0.52
			c0-0.19-0.02-0.36-0.07-0.52c-0.05-0.16-0.13-0.3-0.23-0.41c-0.1-0.11-0.23-0.21-0.38-0.28C70.79,18.9,70.62,18.86,70.44,18.85z"
			/>
		<path class="st0" d="M73.39,20.27c0.04-0.27,0.12-0.51,0.25-0.73c0.13-0.22,0.3-0.41,0.5-0.56s0.42-0.26,0.68-0.34
			c0.25-0.07,0.51-0.09,0.79-0.05c0.27,0.04,0.52,0.12,0.75,0.25c0.22,0.13,0.41,0.3,0.57,0.5c0.15,0.2,0.27,0.42,0.34,0.67
			c0.07,0.25,0.09,0.5,0.05,0.77c-0.04,0.27-0.12,0.51-0.25,0.74c-0.13,0.22-0.3,0.41-0.5,0.56c-0.2,0.15-0.42,0.26-0.68,0.33
			c-0.25,0.07-0.51,0.09-0.79,0.05s-0.52-0.12-0.75-0.25c-0.22-0.13-0.41-0.3-0.57-0.49c-0.15-0.2-0.27-0.42-0.34-0.67
			C73.37,20.8,73.35,20.54,73.39,20.27z M74.13,20.37c-0.02,0.19-0.02,0.36,0.02,0.53c0.04,0.16,0.1,0.31,0.19,0.44
			c0.09,0.12,0.2,0.23,0.35,0.31c0.14,0.08,0.31,0.14,0.49,0.16c0.19,0.02,0.36,0.01,0.52-0.03c0.16-0.04,0.3-0.12,0.42-0.21
			c0.12-0.1,0.22-0.22,0.29-0.37c0.08-0.15,0.13-0.32,0.15-0.51c0.02-0.19,0.02-0.36-0.02-0.53c-0.04-0.16-0.1-0.31-0.19-0.43
			c-0.09-0.13-0.2-0.23-0.35-0.31s-0.31-0.14-0.49-0.16c-0.19-0.02-0.36-0.01-0.52,0.03c-0.16,0.04-0.3,0.12-0.42,0.21
			c-0.12,0.1-0.22,0.22-0.29,0.37C74.21,20.01,74.16,20.18,74.13,20.37z"/>
		<path class="st0" d="M78.48,19.06l0.77,0.2l0.12,2.89l0.02,0l1.55-2.47l0.73,0.19l0.22,2.92l0.02,0l1.45-2.49l0.73,0.19L82,23.8
			l-0.69-0.18l-0.27-2.93l-0.02,0l-1.56,2.47l-0.73-0.19L78.48,19.06z"/>
		<path class="st0" d="M84.85,23.07c-0.06,0.15-0.08,0.3-0.06,0.45c0.02,0.15,0.06,0.29,0.14,0.42c0.07,0.13,0.17,0.25,0.29,0.35
			c0.12,0.1,0.26,0.18,0.41,0.24c0.2,0.08,0.4,0.1,0.59,0.06c0.19-0.04,0.38-0.11,0.56-0.22l0.35,0.57
			c-0.55,0.33-1.15,0.37-1.81,0.12c-0.27-0.11-0.5-0.25-0.69-0.43c-0.19-0.18-0.33-0.38-0.42-0.6c-0.09-0.22-0.13-0.46-0.13-0.71
			c0-0.25,0.05-0.51,0.15-0.77s0.24-0.48,0.41-0.67c0.18-0.19,0.37-0.33,0.6-0.43c0.22-0.1,0.46-0.16,0.72-0.16
			c0.26-0.01,0.51,0.04,0.77,0.14c0.31,0.12,0.55,0.27,0.72,0.46c0.17,0.19,0.29,0.4,0.36,0.62c0.07,0.23,0.09,0.46,0.07,0.7
			c-0.02,0.24-0.08,0.47-0.16,0.7l-0.09,0.24L84.85,23.07z M87.13,23.34c0.05-0.15,0.08-0.29,0.09-0.43
			c0.01-0.14-0.02-0.27-0.06-0.39c-0.05-0.12-0.12-0.23-0.23-0.33c-0.1-0.1-0.24-0.18-0.41-0.24c-0.16-0.06-0.32-0.09-0.48-0.08
			c-0.16,0.01-0.3,0.05-0.43,0.11c-0.13,0.06-0.24,0.14-0.34,0.24c-0.1,0.1-0.17,0.21-0.21,0.33L87.13,23.34z"/>
		<path class="st0" d="M89.52,22.7l0.63,0.31l-0.25,0.51l0.01,0.01c0.09-0.07,0.18-0.12,0.29-0.16c0.11-0.04,0.21-0.06,0.33-0.07
			c0.11-0.01,0.23,0,0.35,0.02c0.12,0.02,0.23,0.06,0.33,0.11c0.1,0.05,0.19,0.11,0.26,0.18l-0.36,0.67
			c-0.04-0.04-0.09-0.08-0.14-0.11s-0.1-0.07-0.15-0.09c-0.31-0.15-0.59-0.18-0.84-0.08c-0.25,0.09-0.46,0.32-0.64,0.69l-0.82,1.68
			l-0.63-0.31L89.52,22.7z"/>
		<path class="st0" d="M95.84,24.01l1.62,1.09c0.29,0.2,0.51,0.4,0.65,0.61c0.14,0.21,0.22,0.41,0.25,0.61
			c0.03,0.2,0.01,0.39-0.05,0.57c-0.06,0.18-0.14,0.35-0.23,0.49c-0.1,0.14-0.22,0.28-0.36,0.4c-0.15,0.12-0.32,0.21-0.51,0.26
			c-0.19,0.05-0.41,0.05-0.66,0s-0.51-0.17-0.81-0.37l-1-0.67l-1.36,2.03l-0.63-0.42L95.84,24.01z M95.1,26.47l0.82,0.55
			c0.12,0.08,0.25,0.15,0.38,0.21s0.26,0.1,0.39,0.11c0.13,0.01,0.25-0.01,0.38-0.07c0.12-0.06,0.24-0.17,0.34-0.32
			c0.11-0.16,0.16-0.3,0.17-0.44c0.01-0.13-0.02-0.26-0.07-0.38c-0.06-0.11-0.14-0.22-0.25-0.32c-0.11-0.1-0.22-0.19-0.34-0.27
			l-0.82-0.55L95.1,26.47z"/>
		<path class="st0" d="M100.18,26.61l0.55,0.44l-3.66,4.66l-0.56-0.44L100.18,26.61z"/>
		<path class="st0" d="M100.25,30.08c0.27,0,0.53,0.05,0.79,0.16c0.25,0.11,0.48,0.25,0.67,0.43c0.2,0.18,0.35,0.36,0.45,0.55
			c0.1,0.18,0.16,0.36,0.17,0.53c0.02,0.17,0,0.33-0.06,0.48c-0.06,0.15-0.14,0.29-0.25,0.41l-1.27,1.41
			c-0.09,0.1-0.17,0.19-0.24,0.27c-0.07,0.09-0.13,0.17-0.19,0.25l-0.47-0.42c0.11-0.15,0.24-0.29,0.36-0.43l-0.01-0.01
			c-0.28,0.07-0.53,0.07-0.76,0c-0.23-0.07-0.44-0.2-0.65-0.39c-0.13-0.12-0.23-0.24-0.32-0.38c-0.08-0.14-0.14-0.28-0.16-0.43
			c-0.02-0.15-0.02-0.3,0.03-0.45c0.04-0.15,0.13-0.29,0.25-0.43c0.16-0.18,0.34-0.29,0.52-0.34c0.19-0.05,0.38-0.05,0.59,0
			c0.21,0.05,0.42,0.14,0.63,0.27c0.21,0.13,0.43,0.29,0.64,0.48l0.38,0.35l0.11-0.11c0.06-0.07,0.11-0.15,0.15-0.25
			c0.04-0.09,0.05-0.19,0.05-0.3c0-0.11-0.03-0.21-0.08-0.32c-0.05-0.11-0.13-0.21-0.25-0.31c-0.1-0.09-0.2-0.16-0.29-0.21
			c-0.09-0.05-0.18-0.09-0.27-0.11c-0.09-0.03-0.18-0.04-0.26-0.05c-0.09-0.01-0.17-0.01-0.25-0.02L100.25,30.08z M100.74,32.51
			c-0.12-0.11-0.26-0.22-0.4-0.32c-0.14-0.11-0.28-0.19-0.43-0.24s-0.28-0.08-0.41-0.07c-0.13,0.01-0.25,0.07-0.34,0.18
			c-0.14,0.16-0.19,0.32-0.15,0.49c0.04,0.16,0.16,0.33,0.34,0.5c0.14,0.13,0.29,0.22,0.43,0.26c0.14,0.04,0.28,0.05,0.42,0.03
			c0.13-0.02,0.25-0.07,0.37-0.14c0.11-0.07,0.21-0.15,0.3-0.25l0.16-0.17L100.74,32.51z"/>
		<path class="st0" d="M104.92,35.45c0.01-0.19-0.01-0.36-0.05-0.51c-0.04-0.15-0.14-0.3-0.27-0.45c-0.13-0.14-0.27-0.24-0.42-0.3
			c-0.15-0.06-0.3-0.08-0.46-0.07c-0.16,0.01-0.31,0.05-0.46,0.13c-0.15,0.07-0.29,0.16-0.42,0.28c-0.13,0.12-0.23,0.25-0.3,0.4
			c-0.07,0.15-0.12,0.3-0.13,0.45c-0.01,0.16,0,0.31,0.06,0.46c0.05,0.15,0.14,0.29,0.26,0.43c0.13,0.15,0.28,0.25,0.42,0.3
			c0.15,0.06,0.31,0.08,0.49,0.08l-0.03,0.71c-0.27,0-0.53-0.05-0.76-0.17c-0.23-0.12-0.44-0.28-0.62-0.48
			c-0.19-0.21-0.34-0.44-0.43-0.67c-0.09-0.24-0.13-0.48-0.13-0.72c0.01-0.24,0.07-0.48,0.18-0.71s0.27-0.44,0.48-0.64
			c0.21-0.2,0.44-0.34,0.68-0.43c0.24-0.09,0.48-0.14,0.72-0.13c0.24,0.01,0.48,0.07,0.71,0.18c0.23,0.11,0.45,0.27,0.65,0.49
			c0.18,0.2,0.32,0.42,0.42,0.67c0.1,0.25,0.13,0.51,0.11,0.78L104.92,35.45z"/>
		<path class="st0" d="M105.29,37.65c-0.13,0.1-0.22,0.22-0.29,0.35c-0.06,0.14-0.1,0.28-0.1,0.43c0,0.15,0.02,0.3,0.07,0.45
			c0.05,0.15,0.12,0.29,0.22,0.42c0.13,0.17,0.29,0.29,0.47,0.36s0.38,0.1,0.59,0.11v0.67c-0.64,0-1.18-0.29-1.6-0.85
			c-0.18-0.23-0.3-0.47-0.37-0.72c-0.07-0.25-0.08-0.49-0.04-0.73s0.13-0.46,0.26-0.68c0.13-0.21,0.31-0.41,0.53-0.57
			c0.22-0.17,0.45-0.29,0.7-0.35c0.25-0.07,0.49-0.09,0.74-0.06c0.24,0.03,0.47,0.11,0.7,0.23c0.22,0.13,0.42,0.3,0.58,0.52
			c0.2,0.26,0.32,0.52,0.37,0.77c0.05,0.25,0.04,0.49-0.02,0.72c-0.06,0.23-0.16,0.44-0.31,0.63c-0.15,0.19-0.31,0.36-0.5,0.51
			l-0.2,0.15L105.29,37.65z M107.1,39.08c0.12-0.1,0.22-0.21,0.3-0.32c0.08-0.11,0.13-0.24,0.15-0.37c0.02-0.13,0.02-0.26-0.02-0.4
			c-0.04-0.14-0.11-0.28-0.22-0.42c-0.1-0.14-0.23-0.24-0.37-0.32c-0.14-0.07-0.28-0.12-0.42-0.13c-0.14-0.02-0.28-0.01-0.42,0.03
			c-0.13,0.03-0.25,0.09-0.35,0.16L107.1,39.08z"/>
		<path class="st0" d="M109.59,39.83l0.33,0.57l-0.5,0.29l0.01,0.01c0.05-0.01,0.13-0.01,0.23,0.01c0.1,0.02,0.21,0.05,0.32,0.1
			c0.11,0.05,0.22,0.13,0.34,0.22c0.11,0.09,0.21,0.21,0.3,0.36c0.14,0.24,0.21,0.47,0.2,0.69c0,0.22-0.08,0.44-0.21,0.66
			c0.26-0.01,0.49,0.05,0.7,0.18c0.21,0.13,0.37,0.29,0.49,0.49c0.14,0.25,0.22,0.48,0.23,0.68c0.01,0.2-0.02,0.39-0.1,0.56
			c-0.08,0.17-0.2,0.32-0.35,0.45c-0.15,0.13-0.31,0.25-0.5,0.36l-1.87,1.09l-0.36-0.61l1.79-1.04c0.12-0.07,0.23-0.15,0.34-0.23
			c0.1-0.08,0.18-0.17,0.24-0.27c0.06-0.1,0.09-0.21,0.08-0.33c0-0.12-0.04-0.26-0.13-0.41c-0.17-0.29-0.38-0.45-0.64-0.47
			c-0.25-0.02-0.52,0.05-0.81,0.22l-1.75,1.02l-0.36-0.61l1.68-0.98c0.15-0.09,0.29-0.18,0.41-0.27c0.12-0.09,0.21-0.19,0.27-0.29
			c0.07-0.1,0.1-0.21,0.1-0.33c0-0.12-0.04-0.25-0.13-0.4c-0.06-0.11-0.15-0.2-0.25-0.28c-0.1-0.08-0.22-0.13-0.35-0.16
			c-0.13-0.03-0.28-0.02-0.44,0.01c-0.16,0.03-0.33,0.1-0.51,0.21l-1.67,0.97l-0.36-0.61L109.59,39.83z"/>
		<path class="st0" d="M111.31,47.42c-0.15,0.06-0.27,0.15-0.37,0.27c-0.09,0.12-0.16,0.25-0.2,0.39c-0.04,0.14-0.06,0.29-0.04,0.45
			c0.01,0.16,0.05,0.31,0.11,0.46c0.09,0.2,0.21,0.36,0.36,0.47c0.16,0.11,0.34,0.19,0.55,0.25l-0.17,0.65
			c-0.62-0.16-1.07-0.57-1.35-1.22c-0.11-0.27-0.17-0.53-0.18-0.79c0-0.26,0.05-0.5,0.14-0.72c0.1-0.22,0.24-0.42,0.42-0.59
			c0.18-0.17,0.4-0.32,0.66-0.43c0.26-0.11,0.51-0.17,0.77-0.17c0.26,0,0.5,0.04,0.73,0.12c0.23,0.09,0.43,0.22,0.62,0.4
			c0.18,0.18,0.33,0.39,0.44,0.65c0.13,0.3,0.19,0.58,0.17,0.83c-0.02,0.25-0.08,0.49-0.2,0.69s-0.26,0.39-0.45,0.54
			c-0.19,0.15-0.39,0.27-0.61,0.37l-0.23,0.1L111.31,47.42z M112.71,49.24c0.14-0.07,0.26-0.15,0.37-0.24
			c0.1-0.09,0.18-0.2,0.23-0.32c0.05-0.12,0.08-0.25,0.08-0.4c0-0.14-0.04-0.3-0.11-0.46c-0.07-0.16-0.16-0.29-0.28-0.4
			c-0.12-0.11-0.24-0.19-0.38-0.24c-0.13-0.05-0.27-0.07-0.41-0.08c-0.14,0-0.27,0.02-0.38,0.07L112.71,49.24z"/>
		<path class="st0" d="M114.89,50.61l0.21,0.67l-0.55,0.17l0,0.02c0.22,0.02,0.42,0.12,0.6,0.3c0.18,0.17,0.32,0.4,0.4,0.67
			c0.05,0.17,0.08,0.34,0.07,0.51c0,0.17-0.04,0.34-0.12,0.49c-0.07,0.15-0.18,0.29-0.34,0.41c-0.15,0.12-0.34,0.22-0.58,0.29
			l-2.28,0.71l-0.21-0.67l2.1-0.65c0.16-0.05,0.3-0.12,0.4-0.2c0.1-0.08,0.18-0.17,0.23-0.27c0.05-0.1,0.07-0.2,0.08-0.31
			c0-0.11-0.01-0.21-0.05-0.32c-0.04-0.14-0.11-0.26-0.19-0.37c-0.08-0.11-0.19-0.19-0.31-0.25s-0.27-0.09-0.44-0.09
			c-0.17,0-0.35,0.03-0.56,0.09l-1.83,0.57l-0.21-0.67L114.89,50.61z"/>
		<path class="st0" d="M116.05,57.26l-0.22-0.99l-1.65,0.36c-0.1,0.02-0.2,0.05-0.3,0.07s-0.18,0.07-0.26,0.12
			c-0.07,0.05-0.12,0.11-0.16,0.2c-0.03,0.08-0.03,0.19-0.01,0.32c0.02,0.08,0.04,0.16,0.08,0.25c0.03,0.08,0.08,0.16,0.14,0.22
			l-0.63,0.14c-0.06-0.07-0.12-0.17-0.17-0.3c-0.05-0.13-0.08-0.22-0.09-0.3c-0.06-0.26-0.07-0.48-0.02-0.64
			c0.04-0.16,0.11-0.29,0.22-0.38c0.1-0.1,0.22-0.17,0.37-0.21s0.29-0.08,0.44-0.12l1.89-0.42l-0.18-0.8l0.6-0.13l0.18,0.8
			l1.02-0.23l0.15,0.69l-1.02,0.23l0.22,0.99L116.05,57.26z"/>
	</g>
	<path class="st0" d="M90.84,54.88c-4.95-0.73-9.82-1.92-14.55-3.58l-5.32,14.63l16.55,6.02C89.45,66.45,90.57,60.7,90.84,54.88z
		 M86.64,74.37l-16.55-6.02L64.8,82.88c4.67,1.8,9.16,4.05,13.41,6.71C81.74,84.95,84.58,79.83,86.64,74.37z M62.07,41.81
		c4.03,2.45,8.27,4.52,12.69,6.19l5.52-15.18C74.6,31.54,67.94,35.06,62.07,41.81z M73.87,50.42c-4.67-1.8-9.16-4.05-13.41-6.71
		c-3.53,4.64-6.37,9.76-8.43,15.22l16.55,6.02L73.87,50.42z M72.21,31.13c-6.62-0.53-13.26,0.8-19.17,3.85
		c2.15,1.98,4.46,3.79,6.9,5.42C63.22,36.36,67.43,33.19,72.21,31.13z M102.16,52.89c-2.56-6.14-6.78-11.43-12.19-15.3
		c2.33,4.66,3.5,9.81,3.42,15.01C96.3,52.93,99.23,53.02,102.16,52.89z M90.88,52.28c-0.17-8.91-3.01-15.9-8.18-18.57l-5.52,15.18
		C81.63,50.43,86.22,51.57,90.88,52.28z M51.14,61.4c-1.9,5.46-3,11.16-3.27,16.93c4.95,0.73,9.82,1.93,14.55,3.58l5.29-14.53
		l-16.55-6.02L51.14,61.4z M49.58,58.09c2.13-5.59,5.05-10.83,8.69-15.58c-2.7-1.86-5.23-3.94-7.57-6.23
		c-6.47,3.97-11.5,9.9-14.34,16.94l13.24,4.82L49.58,58.09z M89.09,75.21c-2.13,5.59-5.05,10.83-8.69,15.58
		c2.7,1.86,5.23,3.94,7.57,6.23c6.47-3.97,11.5-9.9,14.34-16.94l-13.24-4.82L89.09,75.21z M103.1,55.46
		c-3.25,0.2-6.52,0.13-9.76-0.22c-0.27,6-1.41,11.93-3.39,17.6l13.24,4.82C105.54,70.44,105.51,62.66,103.1,55.46z M45.34,78.03
		c0.27-5.99,1.4-11.91,3.38-17.57l-13.23-4.85c-2.35,7.22-2.31,15,0.09,22.19C38.84,77.6,42.1,77.68,45.34,78.03z M66.46,102.17
		c6.63,0.53,13.27-0.81,19.18-3.86c-2.15-1.98-4.46-3.79-6.9-5.42C75.46,96.93,71.24,100.11,66.46,102.17z M76.6,91.49
		c-4.03-2.45-8.27-4.52-12.68-6.19l-5.52,15.18C64.07,101.76,70.73,98.24,76.6,91.49z M36.54,80.31l-0.04,0.1
		c2.56,6.14,6.79,11.44,12.2,15.3c-2.34-4.69-3.51-9.88-3.4-15.12C42.39,80.27,39.46,80.17,36.54,80.31z M47.8,81.03
		c0.17,8.91,3.01,15.9,8.18,18.57l5.52-15.18C57.04,82.87,52.46,81.73,47.8,81.03z"/>
</g>
<g>
	<path class="st3" d="M135.12,92V77.98h1.39V92H135.12z"/>
	<path class="st3" d="M144.09,92v-7.08c0-0.37-0.01-0.72-0.02-1.06c-0.01-0.34-0.07-0.64-0.17-0.91c-0.1-0.27-0.25-0.48-0.47-0.64
		c-0.21-0.16-0.53-0.24-0.94-0.24c-0.38,0-0.67,0.09-0.9,0.28s-0.4,0.43-0.52,0.74c-0.12,0.3-0.2,0.65-0.23,1.03
		c-0.04,0.38-0.06,0.77-0.06,1.17V92h-1.36V80.92h1.36v1.32c0.08-0.2,0.19-0.39,0.32-0.57c0.13-0.18,0.29-0.34,0.47-0.47
		c0.18-0.14,0.39-0.24,0.61-0.32c0.23-0.08,0.47-0.12,0.74-0.12c0.42,0,0.77,0.06,1.06,0.17s0.52,0.27,0.71,0.47
		c0.19,0.2,0.33,0.43,0.44,0.7c0.1,0.27,0.18,0.56,0.23,0.87c0.05,0.31,0.07,0.63,0.08,0.97c0.01,0.34,0.01,0.67,0.01,1.01V92
		H144.09z"/>
	<path class="st3" d="M149.8,77.31v3.6h2.18v1.26h-2.18v6.3c0,0.45,0.01,0.83,0.03,1.13c0.02,0.3,0.07,0.55,0.14,0.74
		c0.08,0.19,0.19,0.32,0.35,0.41c0.16,0.08,0.37,0.12,0.65,0.12c0.31,0,0.58-0.04,0.82-0.12c0.24-0.08,0.42-0.16,0.54-0.22
		l0.13,1.15c-0.16,0.11-0.38,0.21-0.65,0.32c-0.28,0.11-0.6,0.16-0.98,0.16c-0.54,0-0.97-0.08-1.29-0.25
		c-0.32-0.17-0.56-0.41-0.72-0.72c-0.17-0.32-0.27-0.7-0.32-1.16c-0.05-0.46-0.07-0.97-0.07-1.55v-6.3h-1.13v-1.26h1.13v-3.6H149.8z
		"/>
	<path class="st3" d="M159.75,88.25v0.19c0,0.3-0.01,0.6-0.03,0.9c-0.02,0.3-0.07,0.59-0.13,0.86c-0.07,0.27-0.17,0.53-0.3,0.77
		c-0.13,0.24-0.31,0.44-0.53,0.62c-0.22,0.18-0.5,0.31-0.83,0.41c-0.33,0.1-0.72,0.15-1.18,0.15c-0.47,0-0.87-0.06-1.2-0.17
		s-0.61-0.27-0.83-0.47c-0.22-0.2-0.4-0.43-0.53-0.7c-0.13-0.27-0.23-0.56-0.3-0.87c-0.07-0.31-0.11-0.63-0.13-0.97
		c-0.02-0.34-0.03-0.67-0.03-1v-3.03c0-0.34,0.01-0.69,0.03-1.03c0.02-0.34,0.07-0.67,0.14-0.98c0.07-0.31,0.17-0.6,0.3-0.87
		c0.13-0.27,0.31-0.5,0.53-0.7c0.22-0.2,0.5-0.35,0.83-0.46c0.33-0.11,0.72-0.17,1.18-0.17c0.47,0,0.87,0.05,1.2,0.16
		c0.33,0.1,0.61,0.25,0.83,0.43c0.22,0.18,0.4,0.39,0.53,0.64c0.13,0.24,0.23,0.5,0.3,0.78c0.07,0.28,0.11,0.57,0.13,0.87
		c0.02,0.3,0.03,0.6,0.03,0.88v1.87l-4.68,0.8v0.79c0,0.37,0.01,0.73,0.03,1.07c0.02,0.35,0.08,0.65,0.19,0.92
		c0.11,0.26,0.27,0.48,0.5,0.64c0.22,0.16,0.54,0.24,0.95,0.24c0.39,0,0.7-0.06,0.92-0.19c0.22-0.13,0.39-0.3,0.49-0.52
		c0.11-0.22,0.17-0.47,0.2-0.76c0.02-0.29,0.04-0.6,0.04-0.93v-0.19H159.75z M156.74,82.05c-0.39,0-0.7,0.08-0.93,0.23
		c-0.22,0.15-0.39,0.36-0.5,0.62c-0.11,0.26-0.18,0.57-0.2,0.92c-0.03,0.35-0.04,0.72-0.04,1.12v1.04l3.32-0.59V84.5
		c0-0.31-0.01-0.61-0.03-0.9c-0.02-0.29-0.08-0.55-0.18-0.78c-0.1-0.23-0.27-0.42-0.49-0.56C157.46,82.12,157.14,82.05,156.74,82.05
		z"/>
	<path class="st3" d="M166.22,82.27c-0.07-0.01-0.19-0.05-0.34-0.1c-0.15-0.06-0.34-0.08-0.55-0.08h-0.01
		c-0.37,0-0.67,0.08-0.89,0.25c-0.22,0.17-0.39,0.39-0.51,0.66c-0.12,0.28-0.2,0.59-0.24,0.95c-0.04,0.36-0.06,0.72-0.06,1.1V92
		h-1.36V80.92h1.36v1.3c0.07-0.21,0.16-0.41,0.27-0.59c0.11-0.18,0.24-0.33,0.39-0.46s0.34-0.23,0.54-0.3s0.45-0.11,0.72-0.11
		c0.1,0,0.22,0.01,0.33,0.03c0.12,0.02,0.23,0.05,0.33,0.09L166.22,82.27z"/>
	<path class="st3" d="M172.61,92v-7.08c0-0.37-0.01-0.72-0.02-1.06c-0.01-0.34-0.07-0.64-0.17-0.91c-0.1-0.27-0.25-0.48-0.47-0.64
		c-0.21-0.16-0.53-0.24-0.94-0.24c-0.38,0-0.67,0.09-0.9,0.28s-0.4,0.43-0.52,0.74c-0.12,0.3-0.2,0.65-0.23,1.03
		c-0.04,0.38-0.06,0.77-0.06,1.17V92h-1.36V80.92h1.36v1.32c0.08-0.2,0.19-0.39,0.32-0.57c0.13-0.18,0.29-0.34,0.47-0.47
		c0.18-0.14,0.39-0.24,0.61-0.32c0.23-0.08,0.47-0.12,0.74-0.12c0.42,0,0.77,0.06,1.06,0.17c0.29,0.11,0.52,0.27,0.71,0.47
		c0.19,0.2,0.33,0.43,0.44,0.7c0.1,0.27,0.18,0.56,0.23,0.87c0.05,0.31,0.07,0.63,0.08,0.97c0.01,0.34,0.01,0.67,0.01,1.01V92
		H172.61z"/>
	<path class="st3" d="M181.07,92v-1.27c-0.07,0.21-0.16,0.4-0.27,0.58c-0.11,0.18-0.24,0.33-0.4,0.46c-0.16,0.13-0.34,0.23-0.54,0.3
		c-0.21,0.07-0.44,0.11-0.71,0.11c-0.58,0-1.05-0.09-1.41-0.28c-0.37-0.19-0.65-0.44-0.86-0.75c-0.21-0.31-0.35-0.68-0.42-1.09
		c-0.08-0.41-0.11-0.84-0.11-1.29c0-0.41,0.02-0.79,0.07-1.17c0.05-0.37,0.17-0.7,0.36-0.98c0.19-0.28,0.47-0.51,0.84-0.68
		c0.37-0.17,0.88-0.25,1.52-0.25c0.47,0,0.86,0.03,1.16,0.1c0.3,0.07,0.56,0.14,0.78,0.23v-1.08c0-0.39-0.01-0.77-0.04-1.12
		c-0.03-0.35-0.09-0.66-0.2-0.92c-0.11-0.26-0.27-0.47-0.49-0.62c-0.22-0.15-0.53-0.23-0.92-0.23c-0.36,0-0.64,0.07-0.85,0.21
		c-0.21,0.14-0.37,0.32-0.48,0.54c-0.11,0.22-0.18,0.47-0.21,0.75c-0.03,0.28-0.05,0.55-0.05,0.83v0.15h-1.36v-0.15
		c0-0.27,0.01-0.55,0.04-0.83c0.03-0.29,0.07-0.56,0.14-0.83c0.07-0.27,0.17-0.52,0.31-0.76c0.13-0.24,0.31-0.45,0.53-0.63
		c0.22-0.18,0.48-0.32,0.8-0.42c0.31-0.1,0.69-0.16,1.12-0.16c0.61,0,1.12,0.09,1.51,0.28c0.39,0.19,0.7,0.44,0.93,0.76
		c0.22,0.32,0.38,0.7,0.47,1.12c0.09,0.42,0.13,0.87,0.13,1.35V92H181.07z M179.39,90.85c0.35,0,0.63-0.07,0.85-0.22
		c0.21-0.15,0.38-0.34,0.51-0.59c0.12-0.25,0.21-0.53,0.25-0.84c0.04-0.32,0.06-0.64,0.06-0.98v-0.99c-0.19-0.14-0.41-0.24-0.66-0.3
		c-0.25-0.07-0.59-0.1-1.02-0.1c-0.39,0-0.69,0.06-0.92,0.18c-0.22,0.12-0.39,0.27-0.5,0.45c-0.11,0.19-0.18,0.39-0.21,0.62
		c-0.03,0.23-0.04,0.46-0.04,0.69c0,0.29,0.02,0.56,0.07,0.82c0.05,0.26,0.13,0.48,0.25,0.67c0.12,0.19,0.29,0.34,0.52,0.45
		C178.76,90.8,179.05,90.85,179.39,90.85z"/>
	<path class="st3" d="M186.88,77.31v3.6h2.18v1.26h-2.18v6.3c0,0.45,0.01,0.83,0.03,1.13c0.02,0.3,0.07,0.55,0.14,0.74
		c0.08,0.19,0.19,0.32,0.35,0.41c0.16,0.08,0.37,0.12,0.65,0.12c0.31,0,0.58-0.04,0.82-0.12c0.24-0.08,0.42-0.16,0.54-0.22
		l0.13,1.15c-0.16,0.11-0.38,0.21-0.65,0.32c-0.28,0.11-0.6,0.16-0.98,0.16c-0.54,0-0.97-0.08-1.29-0.25
		c-0.32-0.17-0.56-0.41-0.72-0.72c-0.17-0.32-0.27-0.7-0.32-1.16c-0.05-0.46-0.07-0.97-0.07-1.55v-6.3h-1.13v-1.26h1.13v-3.6H186.88
		z"/>
	<path class="st3" d="M191.29,78.23c0-0.24,0.07-0.42,0.2-0.55c0.13-0.13,0.34-0.19,0.63-0.19c0.32,0,0.55,0.06,0.68,0.19
		c0.13,0.13,0.2,0.31,0.2,0.55c0,0.23-0.07,0.41-0.2,0.54c-0.13,0.13-0.36,0.19-0.68,0.19c-0.29,0-0.5-0.06-0.63-0.19
		C191.36,78.65,191.29,78.47,191.29,78.23z M191.45,92V80.92h1.37V92H191.45z"/>
	<path class="st3" d="M195.3,84.94c0-0.34,0.01-0.69,0.03-1.03c0.02-0.34,0.07-0.67,0.13-0.98c0.07-0.31,0.17-0.6,0.3-0.87
		c0.14-0.27,0.31-0.5,0.53-0.7c0.22-0.2,0.5-0.35,0.83-0.46c0.33-0.11,0.72-0.17,1.18-0.17c0.47,0,0.87,0.06,1.2,0.17
		c0.33,0.11,0.61,0.27,0.83,0.47c0.22,0.2,0.4,0.43,0.53,0.7c0.13,0.27,0.23,0.56,0.3,0.87c0.07,0.31,0.11,0.63,0.13,0.97
		c0.02,0.34,0.03,0.67,0.03,1v3.04c0,0.34-0.01,0.69-0.03,1.03c-0.02,0.34-0.07,0.67-0.13,0.98c-0.07,0.31-0.17,0.6-0.3,0.86
		c-0.13,0.26-0.31,0.49-0.53,0.69c-0.22,0.2-0.5,0.35-0.83,0.46c-0.33,0.11-0.72,0.17-1.18,0.17c-0.47,0-0.87-0.06-1.2-0.17
		c-0.33-0.11-0.61-0.27-0.83-0.47c-0.22-0.2-0.4-0.43-0.53-0.7c-0.13-0.27-0.23-0.56-0.3-0.87c-0.07-0.31-0.12-0.63-0.13-0.97
		c-0.02-0.34-0.03-0.67-0.03-1V84.94z M198.32,82.05c-0.39,0-0.7,0.08-0.92,0.23c-0.22,0.15-0.39,0.36-0.49,0.62
		c-0.11,0.26-0.17,0.57-0.2,0.92c-0.03,0.35-0.04,0.72-0.04,1.12v3.06c0,0.37,0.01,0.73,0.03,1.07c0.02,0.34,0.08,0.65,0.18,0.91
		c0.1,0.26,0.27,0.48,0.49,0.64c0.22,0.16,0.54,0.24,0.94,0.24c0.39,0,0.7-0.08,0.92-0.23c0.22-0.15,0.39-0.36,0.49-0.62
		c0.11-0.26,0.17-0.57,0.2-0.92c0.03-0.35,0.04-0.72,0.04-1.12v-3.05c0-0.37-0.01-0.73-0.03-1.08c-0.02-0.34-0.08-0.65-0.18-0.91
		c-0.1-0.26-0.27-0.48-0.49-0.64C199.04,82.13,198.72,82.05,198.32,82.05z"/>
	<path class="st3" d="M208.52,92v-7.08c0-0.37-0.01-0.72-0.02-1.06c-0.01-0.34-0.07-0.64-0.17-0.91c-0.1-0.27-0.25-0.48-0.47-0.64
		c-0.21-0.16-0.53-0.24-0.94-0.24c-0.38,0-0.67,0.09-0.9,0.28s-0.4,0.43-0.52,0.74c-0.12,0.3-0.2,0.65-0.23,1.03
		c-0.04,0.38-0.06,0.77-0.06,1.17V92h-1.36V80.92h1.36v1.32c0.08-0.2,0.19-0.39,0.32-0.57c0.13-0.18,0.29-0.34,0.47-0.47
		c0.18-0.14,0.39-0.24,0.61-0.32c0.23-0.08,0.47-0.12,0.74-0.12c0.42,0,0.77,0.06,1.06,0.17s0.52,0.27,0.71,0.47
		c0.19,0.2,0.33,0.43,0.44,0.7c0.1,0.27,0.18,0.56,0.23,0.87c0.05,0.31,0.07,0.63,0.08,0.97c0.01,0.34,0.01,0.67,0.01,1.01V92
		H208.52z"/>
	<path class="st3" d="M216.99,92v-1.27c-0.07,0.21-0.16,0.4-0.27,0.58c-0.11,0.18-0.24,0.33-0.4,0.46c-0.16,0.13-0.34,0.23-0.54,0.3
		c-0.21,0.07-0.44,0.11-0.71,0.11c-0.58,0-1.05-0.09-1.41-0.28c-0.37-0.19-0.65-0.44-0.86-0.75c-0.21-0.31-0.35-0.68-0.42-1.09
		c-0.08-0.41-0.11-0.84-0.11-1.29c0-0.41,0.02-0.79,0.07-1.17c0.05-0.37,0.17-0.7,0.36-0.98c0.19-0.28,0.47-0.51,0.84-0.68
		c0.37-0.17,0.88-0.25,1.52-0.25c0.47,0,0.86,0.03,1.16,0.1c0.3,0.07,0.56,0.14,0.78,0.23v-1.08c0-0.39-0.01-0.77-0.04-1.12
		c-0.03-0.35-0.09-0.66-0.2-0.92c-0.11-0.26-0.27-0.47-0.49-0.62c-0.22-0.15-0.53-0.23-0.92-0.23c-0.36,0-0.64,0.07-0.85,0.21
		c-0.21,0.14-0.37,0.32-0.48,0.54c-0.11,0.22-0.18,0.47-0.21,0.75c-0.03,0.28-0.05,0.55-0.05,0.83v0.15h-1.36v-0.15
		c0-0.27,0.01-0.55,0.04-0.83c0.03-0.29,0.07-0.56,0.14-0.83c0.07-0.27,0.17-0.52,0.31-0.76c0.13-0.24,0.31-0.45,0.53-0.63
		c0.22-0.18,0.48-0.32,0.8-0.42c0.31-0.1,0.69-0.16,1.12-0.16c0.61,0,1.12,0.09,1.51,0.28c0.39,0.19,0.7,0.44,0.93,0.76
		c0.22,0.32,0.38,0.7,0.47,1.12c0.09,0.42,0.13,0.87,0.13,1.35V92H216.99z M215.31,90.85c0.35,0,0.63-0.07,0.85-0.22
		c0.21-0.15,0.38-0.34,0.51-0.59c0.12-0.25,0.21-0.53,0.25-0.84c0.04-0.32,0.06-0.64,0.06-0.98v-0.99c-0.19-0.14-0.41-0.24-0.66-0.3
		c-0.25-0.07-0.59-0.1-1.02-0.1c-0.39,0-0.69,0.06-0.92,0.18c-0.22,0.12-0.39,0.27-0.5,0.45c-0.11,0.19-0.18,0.39-0.21,0.62
		c-0.03,0.23-0.04,0.46-0.04,0.69c0,0.29,0.02,0.56,0.07,0.82c0.05,0.26,0.13,0.48,0.25,0.67c0.12,0.19,0.29,0.34,0.52,0.45
		C214.68,90.8,214.97,90.85,215.31,90.85z"/>
	<path class="st3" d="M221.16,92V77.54h1.36V92H221.16z"/>
	<path class="st3" d="M230.74,79.67L230.87,92h-1.39V77.98h2.01l2.35,9.9l2.34-9.9h2V92h-1.39l0.14-12.32l-2.41,10.26h-1.37
		L230.74,79.67z"/>
	<path class="st3" d="M245.42,92v-1.27c-0.07,0.21-0.16,0.4-0.27,0.58c-0.11,0.18-0.24,0.33-0.4,0.46c-0.16,0.13-0.34,0.23-0.54,0.3
		c-0.21,0.07-0.44,0.11-0.71,0.11c-0.58,0-1.05-0.09-1.41-0.28c-0.37-0.19-0.65-0.44-0.86-0.75c-0.21-0.31-0.35-0.68-0.42-1.09
		c-0.08-0.41-0.11-0.84-0.11-1.29c0-0.41,0.02-0.79,0.07-1.17c0.05-0.37,0.17-0.7,0.36-0.98c0.19-0.28,0.47-0.51,0.84-0.68
		c0.37-0.17,0.88-0.25,1.52-0.25c0.47,0,0.86,0.03,1.16,0.1c0.3,0.07,0.56,0.14,0.78,0.23v-1.08c0-0.39-0.01-0.77-0.04-1.12
		c-0.03-0.35-0.09-0.66-0.2-0.92c-0.11-0.26-0.27-0.47-0.49-0.62c-0.22-0.15-0.53-0.23-0.92-0.23c-0.36,0-0.64,0.07-0.85,0.21
		c-0.21,0.14-0.37,0.32-0.48,0.54c-0.11,0.22-0.18,0.47-0.21,0.75c-0.03,0.28-0.05,0.55-0.05,0.83v0.15h-1.36v-0.15
		c0-0.27,0.01-0.55,0.04-0.83c0.03-0.29,0.07-0.56,0.14-0.83c0.07-0.27,0.17-0.52,0.31-0.76c0.13-0.24,0.31-0.45,0.53-0.63
		c0.22-0.18,0.48-0.32,0.8-0.42c0.31-0.1,0.69-0.16,1.12-0.16c0.61,0,1.12,0.09,1.51,0.28c0.39,0.19,0.7,0.44,0.93,0.76
		c0.22,0.32,0.38,0.7,0.47,1.12c0.09,0.42,0.13,0.87,0.13,1.35V92H245.42z M243.74,90.85c0.35,0,0.63-0.07,0.85-0.22
		c0.21-0.15,0.38-0.34,0.51-0.59c0.12-0.25,0.21-0.53,0.25-0.84c0.04-0.32,0.06-0.64,0.06-0.98v-0.99c-0.19-0.14-0.41-0.24-0.66-0.3
		c-0.25-0.07-0.59-0.1-1.02-0.1c-0.39,0-0.69,0.06-0.92,0.18c-0.22,0.12-0.39,0.27-0.5,0.45c-0.11,0.19-0.18,0.39-0.21,0.62
		c-0.03,0.23-0.04,0.46-0.04,0.69c0,0.29,0.02,0.56,0.07,0.82c0.05,0.26,0.13,0.48,0.25,0.67c0.12,0.19,0.29,0.34,0.52,0.45
		C243.12,90.8,243.4,90.85,243.74,90.85z"/>
	<path class="st3" d="M254.26,92v-7.08c0-0.37-0.01-0.72-0.02-1.06c-0.01-0.34-0.07-0.64-0.17-0.91c-0.1-0.27-0.25-0.48-0.47-0.64
		c-0.21-0.16-0.53-0.24-0.94-0.24c-0.38,0-0.67,0.09-0.9,0.28s-0.4,0.43-0.52,0.74c-0.12,0.3-0.2,0.65-0.23,1.03
		c-0.04,0.38-0.06,0.77-0.06,1.17V92h-1.36V80.92h1.36v1.32c0.08-0.2,0.19-0.39,0.32-0.57c0.13-0.18,0.29-0.34,0.47-0.47
		c0.18-0.14,0.39-0.24,0.61-0.32c0.23-0.08,0.47-0.12,0.74-0.12c0.42,0,0.77,0.06,1.06,0.17s0.52,0.27,0.71,0.47
		c0.19,0.2,0.33,0.43,0.44,0.7c0.1,0.27,0.18,0.56,0.23,0.87c0.05,0.31,0.07,0.63,0.08,0.97c0.01,0.34,0.01,0.67,0.01,1.01V92
		H254.26z"/>
	<path class="st3" d="M258.34,95.37V80.92h1.37v1.23c0.07-0.2,0.16-0.39,0.27-0.56c0.1-0.17,0.23-0.32,0.39-0.44
		c0.15-0.12,0.33-0.22,0.53-0.29c0.2-0.07,0.44-0.1,0.71-0.1c0.44,0,0.81,0.06,1.12,0.17c0.31,0.11,0.56,0.27,0.77,0.47
		c0.2,0.2,0.36,0.43,0.48,0.7c0.12,0.27,0.21,0.56,0.27,0.87c0.06,0.31,0.1,0.63,0.11,0.97c0.01,0.34,0.02,0.67,0.02,1v3.04
		c0,0.52-0.02,1.02-0.07,1.53c-0.05,0.5-0.16,0.95-0.34,1.34s-0.46,0.71-0.82,0.95c-0.37,0.24-0.88,0.36-1.52,0.36
		c-0.27,0-0.51-0.03-0.71-0.1s-0.38-0.16-0.53-0.28c-0.15-0.12-0.28-0.26-0.39-0.43c-0.11-0.17-0.2-0.35-0.27-0.55v4.58H258.34z
		 M261.36,90.84c0.39,0,0.7-0.08,0.92-0.23c0.22-0.15,0.38-0.36,0.49-0.62c0.11-0.26,0.17-0.57,0.2-0.92
		c0.02-0.35,0.04-0.72,0.04-1.12v-3.05c0-0.37-0.01-0.73-0.03-1.08c-0.02-0.34-0.08-0.65-0.18-0.91c-0.1-0.26-0.26-0.48-0.49-0.64
		c-0.22-0.16-0.54-0.24-0.94-0.24c-0.34,0-0.61,0.07-0.82,0.2c-0.21,0.14-0.37,0.32-0.49,0.55c-0.12,0.23-0.2,0.49-0.25,0.79
		c-0.05,0.3-0.08,0.61-0.09,0.94v3.93c0.01,0.31,0.04,0.6,0.09,0.89c0.05,0.29,0.13,0.54,0.25,0.76c0.12,0.22,0.28,0.4,0.49,0.53
		S261.02,90.84,261.36,90.84z"/>
	<path class="st3" d="M266.56,84.94c0-0.34,0.01-0.69,0.03-1.03c0.02-0.34,0.07-0.67,0.13-0.98c0.07-0.31,0.17-0.6,0.3-0.87
		c0.14-0.27,0.31-0.5,0.53-0.7c0.22-0.2,0.5-0.35,0.83-0.46c0.33-0.11,0.72-0.17,1.18-0.17c0.47,0,0.87,0.06,1.2,0.17
		s0.61,0.27,0.83,0.47c0.22,0.2,0.4,0.43,0.53,0.7c0.13,0.27,0.23,0.56,0.3,0.87c0.07,0.31,0.11,0.63,0.13,0.97
		c0.02,0.34,0.03,0.67,0.03,1v3.04c0,0.34-0.01,0.69-0.03,1.03c-0.02,0.34-0.07,0.67-0.13,0.98c-0.07,0.31-0.17,0.6-0.3,0.86
		c-0.13,0.26-0.31,0.49-0.53,0.69c-0.22,0.2-0.5,0.35-0.83,0.46c-0.33,0.11-0.72,0.17-1.18,0.17c-0.47,0-0.87-0.06-1.2-0.17
		c-0.33-0.11-0.61-0.27-0.83-0.47c-0.22-0.2-0.4-0.43-0.53-0.7c-0.13-0.27-0.23-0.56-0.3-0.87c-0.07-0.31-0.12-0.63-0.13-0.97
		c-0.02-0.34-0.03-0.67-0.03-1V84.94z M269.58,82.05c-0.39,0-0.7,0.08-0.92,0.23c-0.22,0.15-0.39,0.36-0.49,0.62
		c-0.11,0.26-0.17,0.57-0.2,0.92c-0.02,0.35-0.04,0.72-0.04,1.12v3.06c0,0.37,0.01,0.73,0.03,1.07c0.02,0.34,0.08,0.65,0.18,0.91
		c0.1,0.26,0.27,0.48,0.49,0.64c0.22,0.16,0.54,0.24,0.94,0.24c0.39,0,0.7-0.08,0.92-0.23c0.22-0.15,0.39-0.36,0.49-0.62
		s0.17-0.57,0.2-0.92c0.02-0.35,0.04-0.72,0.04-1.12v-3.05c0-0.37-0.01-0.73-0.03-1.08c-0.02-0.34-0.08-0.65-0.18-0.91
		c-0.1-0.26-0.27-0.48-0.49-0.64C270.3,82.13,269.98,82.05,269.58,82.05z"/>
	<path class="st3" d="M274.12,80.91h1.42l1.39,9.79h0.13l1.39-9.79h2.11l1.4,9.79h0.12l1.4-9.79h1.41L283.17,92h-2.23l-1.42-9.78
		h-0.04l-1.4,9.78h-2.24L274.12,80.91z"/>
	<path class="st3" d="M292.37,88.25v0.19c0,0.3-0.01,0.6-0.03,0.9c-0.02,0.3-0.07,0.59-0.13,0.86c-0.07,0.27-0.17,0.53-0.3,0.77
		c-0.13,0.24-0.31,0.44-0.53,0.62c-0.22,0.18-0.5,0.31-0.83,0.41c-0.33,0.1-0.72,0.15-1.18,0.15c-0.47,0-0.87-0.06-1.2-0.17
		s-0.61-0.27-0.83-0.47c-0.22-0.2-0.4-0.43-0.53-0.7c-0.13-0.27-0.23-0.56-0.3-0.87c-0.07-0.31-0.11-0.63-0.13-0.97
		c-0.02-0.34-0.03-0.67-0.03-1v-3.03c0-0.34,0.01-0.69,0.03-1.03c0.02-0.34,0.07-0.67,0.14-0.98c0.07-0.31,0.17-0.6,0.3-0.87
		c0.13-0.27,0.31-0.5,0.53-0.7c0.22-0.2,0.5-0.35,0.83-0.46c0.33-0.11,0.72-0.17,1.18-0.17c0.47,0,0.87,0.05,1.2,0.16
		c0.33,0.1,0.61,0.25,0.83,0.43s0.4,0.39,0.53,0.64c0.13,0.24,0.23,0.5,0.3,0.78c0.07,0.28,0.11,0.57,0.13,0.87
		c0.02,0.3,0.03,0.6,0.03,0.88v1.87l-4.68,0.8v0.79c0,0.37,0.01,0.73,0.03,1.07c0.02,0.35,0.08,0.65,0.19,0.92
		c0.11,0.26,0.27,0.48,0.5,0.64c0.22,0.16,0.54,0.24,0.95,0.24c0.39,0,0.7-0.06,0.92-0.19c0.22-0.13,0.39-0.3,0.49-0.52
		c0.11-0.22,0.17-0.47,0.2-0.76c0.02-0.29,0.04-0.6,0.04-0.93v-0.19H292.37z M289.36,82.05c-0.39,0-0.7,0.08-0.93,0.23
		c-0.22,0.15-0.39,0.36-0.5,0.62c-0.11,0.26-0.18,0.57-0.2,0.92c-0.02,0.35-0.04,0.72-0.04,1.12v1.04l3.32-0.59V84.5
		c0-0.31-0.01-0.61-0.03-0.9c-0.02-0.29-0.08-0.55-0.18-0.78c-0.1-0.23-0.27-0.42-0.49-0.56C290.08,82.12,289.76,82.05,289.36,82.05
		z"/>
	<path class="st3" d="M298.85,82.27c-0.07-0.01-0.19-0.05-0.34-0.1s-0.34-0.08-0.55-0.08h-0.01c-0.37,0-0.67,0.08-0.89,0.25
		c-0.22,0.17-0.39,0.39-0.51,0.66c-0.12,0.28-0.2,0.59-0.24,0.95c-0.04,0.36-0.06,0.72-0.06,1.1V92h-1.36V80.92h1.36v1.3
		c0.07-0.21,0.16-0.41,0.27-0.59c0.11-0.18,0.24-0.33,0.39-0.46s0.34-0.23,0.54-0.3s0.45-0.11,0.72-0.11c0.1,0,0.22,0.01,0.33,0.03
		c0.12,0.02,0.23,0.05,0.33,0.09L298.85,82.27z"/>
	<path class="st3" d="M310.31,88.56c0,0.57-0.06,1.07-0.18,1.52c-0.12,0.45-0.3,0.82-0.55,1.13c-0.25,0.31-0.58,0.54-0.97,0.7
		c-0.4,0.16-0.87,0.24-1.43,0.24c-0.68,0-1.22-0.09-1.63-0.27c-0.41-0.18-0.73-0.43-0.96-0.75c-0.23-0.32-0.38-0.71-0.45-1.16
		c-0.07-0.45-0.11-0.94-0.11-1.48v-0.67h1.38v0.62c0,0.41,0.02,0.76,0.06,1.06c0.04,0.3,0.13,0.55,0.26,0.75
		c0.13,0.2,0.31,0.35,0.53,0.44c0.23,0.1,0.53,0.14,0.89,0.14c0.33,0,0.61-0.06,0.83-0.17c0.22-0.11,0.4-0.27,0.54-0.47
		c0.14-0.2,0.23-0.44,0.29-0.71c0.06-0.28,0.09-0.58,0.09-0.9v-0.09c0-0.32-0.03-0.62-0.08-0.87c-0.05-0.26-0.14-0.49-0.25-0.7
		c-0.11-0.21-0.26-0.39-0.44-0.56c-0.18-0.17-0.39-0.32-0.64-0.47l-1.34-0.81c-0.39-0.23-0.71-0.47-0.97-0.71
		c-0.26-0.24-0.47-0.5-0.63-0.79c-0.16-0.29-0.27-0.61-0.34-0.96s-0.1-0.76-0.1-1.23v-0.19c0-1.09,0.26-1.93,0.78-2.5
		c0.52-0.57,1.29-0.86,2.3-0.86c0.54,0,1,0.08,1.39,0.24c0.38,0.16,0.7,0.39,0.95,0.68s0.43,0.65,0.55,1.07
		c0.12,0.42,0.18,0.89,0.18,1.41v0.91h-1.38L308.87,81c-0.01-0.26-0.04-0.5-0.11-0.72c-0.06-0.22-0.16-0.42-0.3-0.59
		c-0.13-0.17-0.3-0.3-0.51-0.4c-0.21-0.09-0.46-0.14-0.76-0.14c-0.32,0-0.59,0.06-0.81,0.17c-0.22,0.11-0.39,0.27-0.53,0.47
		c-0.14,0.2-0.23,0.43-0.29,0.7c-0.05,0.26-0.08,0.54-0.06,0.84l0.01,0.32c0.01,0.48,0.15,0.91,0.41,1.28
		c0.26,0.38,0.6,0.69,1.02,0.93l1.29,0.75c0.37,0.21,0.68,0.45,0.94,0.71c0.26,0.25,0.46,0.53,0.63,0.83
		c0.16,0.3,0.28,0.63,0.36,0.99c0.08,0.36,0.13,0.74,0.14,1.16V88.56z"/>
	<path class="st3" d="M318.27,88.25v0.19c0,0.3-0.01,0.6-0.03,0.9c-0.02,0.3-0.07,0.59-0.13,0.86c-0.07,0.27-0.17,0.53-0.3,0.77
		c-0.13,0.24-0.31,0.44-0.53,0.62c-0.22,0.18-0.5,0.31-0.83,0.41c-0.33,0.1-0.72,0.15-1.18,0.15c-0.47,0-0.87-0.06-1.2-0.17
		s-0.61-0.27-0.83-0.47c-0.22-0.2-0.4-0.43-0.53-0.7c-0.13-0.27-0.23-0.56-0.3-0.87c-0.07-0.31-0.11-0.63-0.13-0.97
		c-0.02-0.34-0.03-0.67-0.03-1v-3.03c0-0.34,0.01-0.69,0.03-1.03c0.02-0.34,0.07-0.67,0.14-0.98c0.07-0.31,0.17-0.6,0.3-0.87
		c0.13-0.27,0.31-0.5,0.53-0.7c0.22-0.2,0.5-0.35,0.83-0.46c0.33-0.11,0.72-0.17,1.18-0.17c0.47,0,0.87,0.05,1.2,0.16
		c0.33,0.1,0.61,0.25,0.83,0.43c0.22,0.18,0.4,0.39,0.53,0.64c0.13,0.24,0.23,0.5,0.3,0.78c0.07,0.28,0.11,0.57,0.13,0.87
		c0.02,0.3,0.03,0.6,0.03,0.88v1.87l-4.68,0.8v0.79c0,0.37,0.01,0.73,0.03,1.07c0.02,0.35,0.08,0.65,0.19,0.92
		c0.11,0.26,0.27,0.48,0.5,0.64c0.22,0.16,0.54,0.24,0.95,0.24c0.39,0,0.7-0.06,0.92-0.19s0.39-0.3,0.49-0.52
		c0.11-0.22,0.17-0.47,0.2-0.76c0.02-0.29,0.04-0.6,0.04-0.93v-0.19H318.27z M315.26,82.05c-0.39,0-0.7,0.08-0.93,0.23
		c-0.22,0.15-0.39,0.36-0.5,0.62c-0.11,0.26-0.18,0.57-0.2,0.92c-0.03,0.35-0.04,0.72-0.04,1.12v1.04l3.32-0.59V84.5
		c0-0.31-0.01-0.61-0.03-0.9c-0.02-0.29-0.08-0.55-0.18-0.78c-0.1-0.23-0.27-0.42-0.49-0.56C315.98,82.12,315.66,82.05,315.26,82.05
		z"/>
	<path class="st3" d="M324.74,82.27c-0.08-0.01-0.19-0.05-0.34-0.1c-0.15-0.06-0.34-0.08-0.55-0.08h-0.01
		c-0.38,0-0.67,0.08-0.89,0.25c-0.22,0.17-0.39,0.39-0.51,0.66c-0.12,0.28-0.2,0.59-0.24,0.95c-0.04,0.36-0.06,0.72-0.06,1.1V92
		h-1.36V80.92h1.36v1.3c0.07-0.21,0.16-0.41,0.27-0.59c0.11-0.18,0.24-0.33,0.39-0.46c0.15-0.13,0.34-0.23,0.54-0.3
		s0.45-0.11,0.72-0.11c0.11,0,0.22,0.01,0.33,0.03c0.12,0.02,0.23,0.05,0.33,0.09L324.74,82.27z"/>
	<path class="st3" d="M331.94,80.91L329.67,92h-2.05l-2.28-11.09h1.41l1.83,9.79h0.12l1.83-9.79H331.94z"/>
	<path class="st3" d="M333.54,78.23c0-0.24,0.07-0.42,0.2-0.55s0.34-0.19,0.63-0.19c0.32,0,0.54,0.06,0.68,0.19s0.2,0.31,0.2,0.55
		c0,0.23-0.07,0.41-0.2,0.54s-0.36,0.19-0.68,0.19c-0.29,0-0.5-0.06-0.63-0.19S333.54,78.47,333.54,78.23z M333.7,92V80.92h1.37V92
		H333.7z"/>
	<path class="st3" d="M342.25,88.38h1.36v0.13c0,0.28-0.01,0.57-0.03,0.86s-0.07,0.57-0.13,0.84c-0.07,0.27-0.17,0.52-0.3,0.76
		c-0.13,0.24-0.31,0.44-0.53,0.62c-0.22,0.17-0.5,0.31-0.83,0.41c-0.33,0.1-0.72,0.15-1.18,0.15c-0.47,0-0.87-0.06-1.2-0.17
		c-0.33-0.11-0.61-0.27-0.83-0.47c-0.22-0.2-0.4-0.43-0.54-0.69c-0.13-0.27-0.23-0.56-0.3-0.87c-0.07-0.31-0.11-0.63-0.13-0.97
		c-0.02-0.34-0.03-0.67-0.03-1.01v-2.7c0-0.17,0-0.33,0-0.5c0-0.17,0-0.34,0.01-0.51c0.01-0.47,0.05-0.92,0.14-1.35
		c0.09-0.42,0.24-0.8,0.46-1.12c0.22-0.32,0.53-0.58,0.91-0.76c0.39-0.19,0.89-0.28,1.5-0.28c0.47,0,0.87,0.05,1.2,0.16
		c0.33,0.1,0.61,0.25,0.83,0.42c0.22,0.18,0.4,0.39,0.53,0.63c0.13,0.24,0.23,0.49,0.3,0.76c0.07,0.27,0.12,0.54,0.13,0.83
		c0.02,0.29,0.03,0.56,0.03,0.83v0.15h-1.36v-0.15c0-0.28-0.01-0.55-0.03-0.83c-0.02-0.28-0.08-0.53-0.19-0.75
		c-0.11-0.22-0.27-0.41-0.5-0.54c-0.22-0.14-0.54-0.21-0.94-0.21c-0.39,0-0.7,0.08-0.92,0.23c-0.22,0.15-0.39,0.36-0.49,0.62
		c-0.11,0.26-0.17,0.57-0.2,0.92c-0.02,0.35-0.04,0.72-0.04,1.12v2.51c0,0.32,0,0.63,0,0.94c0,0.31,0.02,0.61,0.04,0.89
		c0.02,0.22,0.07,0.43,0.13,0.62c0.06,0.19,0.16,0.36,0.28,0.5c0.12,0.14,0.28,0.25,0.47,0.34c0.19,0.08,0.44,0.12,0.72,0.12
		c0.39,0,0.69-0.06,0.91-0.19c0.22-0.13,0.39-0.3,0.5-0.52c0.11-0.22,0.18-0.47,0.21-0.75s0.04-0.57,0.04-0.87V88.38z"/>
	<path class="st3" d="M351.68,88.25v0.19c0,0.3-0.01,0.6-0.03,0.9c-0.02,0.3-0.07,0.59-0.13,0.86c-0.07,0.27-0.17,0.53-0.3,0.77
		s-0.31,0.44-0.53,0.62c-0.22,0.18-0.5,0.31-0.82,0.41c-0.33,0.1-0.72,0.15-1.19,0.15c-0.47,0-0.87-0.06-1.2-0.17
		c-0.33-0.11-0.61-0.27-0.83-0.47c-0.22-0.2-0.4-0.43-0.53-0.7c-0.13-0.27-0.23-0.56-0.3-0.87c-0.07-0.31-0.12-0.63-0.13-0.97
		c-0.02-0.34-0.03-0.67-0.03-1v-3.03c0-0.34,0.01-0.69,0.03-1.03c0.02-0.34,0.07-0.67,0.14-0.98c0.07-0.31,0.17-0.6,0.3-0.87
		c0.13-0.27,0.31-0.5,0.54-0.7c0.22-0.2,0.5-0.35,0.83-0.46c0.33-0.11,0.72-0.17,1.19-0.17c0.47,0,0.87,0.05,1.2,0.16
		c0.33,0.1,0.61,0.25,0.83,0.43c0.22,0.18,0.4,0.39,0.53,0.64c0.13,0.24,0.23,0.5,0.3,0.78c0.07,0.28,0.11,0.57,0.13,0.87
		c0.02,0.3,0.03,0.6,0.03,0.88v1.87l-4.68,0.8v0.79c0,0.37,0.01,0.73,0.03,1.07c0.02,0.35,0.08,0.65,0.19,0.92
		c0.11,0.26,0.27,0.48,0.5,0.64c0.22,0.16,0.54,0.24,0.95,0.24c0.39,0,0.7-0.06,0.92-0.19c0.22-0.13,0.39-0.3,0.49-0.52
		c0.11-0.22,0.17-0.47,0.2-0.76c0.02-0.29,0.04-0.6,0.04-0.93v-0.19H351.68z M348.67,82.05c-0.39,0-0.7,0.08-0.93,0.23
		c-0.22,0.15-0.39,0.36-0.5,0.62s-0.18,0.57-0.2,0.92c-0.02,0.35-0.04,0.72-0.04,1.12v1.04l3.32-0.59V84.5
		c0-0.31-0.01-0.61-0.03-0.9c-0.02-0.29-0.08-0.55-0.19-0.78c-0.1-0.23-0.27-0.42-0.49-0.56C349.39,82.12,349.08,82.05,348.67,82.05
		z"/>
	<path class="st3" d="M359.4,89.04c0,0.47-0.06,0.89-0.17,1.28c-0.11,0.38-0.29,0.71-0.53,0.98c-0.24,0.27-0.55,0.48-0.93,0.63
		c-0.38,0.15-0.83,0.23-1.36,0.23c-0.58,0-1.06-0.09-1.44-0.26c-0.38-0.18-0.68-0.42-0.91-0.73c-0.22-0.31-0.38-0.68-0.47-1.11
		c-0.09-0.43-0.13-0.9-0.13-1.41h1.36c0,0.27,0.02,0.54,0.07,0.8c0.05,0.26,0.13,0.5,0.25,0.71c0.12,0.21,0.28,0.37,0.48,0.5
		s0.46,0.19,0.77,0.19c0.53,0,0.93-0.15,1.19-0.44c0.26-0.29,0.39-0.7,0.39-1.22c0-0.31-0.06-0.58-0.19-0.81
		c-0.13-0.23-0.29-0.44-0.5-0.62c-0.21-0.18-0.45-0.35-0.71-0.5c-0.26-0.15-0.54-0.31-0.81-0.47c-0.28-0.16-0.55-0.33-0.81-0.51
		c-0.26-0.18-0.5-0.38-0.71-0.61c-0.21-0.23-0.38-0.5-0.5-0.8c-0.13-0.3-0.19-0.66-0.19-1.06c0-0.48,0.05-0.91,0.16-1.28
		c0.11-0.37,0.28-0.69,0.52-0.95c0.23-0.26,0.54-0.46,0.9-0.6c0.37-0.14,0.81-0.21,1.32-0.21c0.47,0,0.88,0.06,1.24,0.18
		c0.36,0.12,0.65,0.32,0.89,0.58c0.24,0.26,0.42,0.6,0.54,1.02c0.12,0.42,0.18,0.92,0.18,1.51h-1.36c0-0.28-0.02-0.55-0.07-0.79
		s-0.13-0.45-0.24-0.63c-0.11-0.18-0.27-0.32-0.46-0.42c-0.19-0.1-0.43-0.15-0.72-0.15c-0.24,0-0.45,0.04-0.64,0.13
		c-0.19,0.09-0.35,0.2-0.48,0.35c-0.13,0.14-0.23,0.31-0.3,0.51c-0.07,0.19-0.1,0.4-0.1,0.62c0,0.3,0.06,0.55,0.19,0.77
		c0.13,0.22,0.3,0.42,0.51,0.6c0.21,0.18,0.45,0.35,0.71,0.51s0.54,0.31,0.82,0.47c0.28,0.16,0.55,0.33,0.82,0.52
		c0.27,0.18,0.5,0.39,0.71,0.63s0.38,0.51,0.51,0.82C359.34,88.28,359.4,88.63,359.4,89.04z"/>
	<path class="st3" d="M361.42,91.32c0-0.57,0.29-0.86,0.87-0.86c0.33,0,0.57,0.1,0.71,0.29c0.14,0.19,0.21,0.44,0.21,0.73
		c0,0.29-0.02,0.55-0.07,0.79s-0.11,0.45-0.18,0.64c-0.07,0.19-0.15,0.37-0.24,0.52c-0.09,0.15-0.18,0.29-0.26,0.41l-0.66-0.36
		c0.08-0.13,0.15-0.25,0.21-0.36c0.06-0.11,0.11-0.22,0.14-0.32c0.04-0.1,0.07-0.21,0.09-0.31c0.02-0.1,0.04-0.22,0.06-0.34
		C361.71,92.15,361.42,91.88,361.42,91.32z"/>
	<path class="st3" d="M369.88,92V77.98h1.39V92H369.88z"/>
	<path class="st3" d="M378.85,92v-7.08c0-0.37-0.01-0.72-0.02-1.06c-0.01-0.34-0.07-0.64-0.17-0.91c-0.1-0.27-0.26-0.48-0.47-0.64
		c-0.21-0.16-0.53-0.24-0.94-0.24c-0.38,0-0.67,0.09-0.9,0.28c-0.22,0.19-0.4,0.43-0.52,0.74c-0.12,0.3-0.2,0.65-0.24,1.03
		c-0.04,0.38-0.06,0.77-0.06,1.17V92h-1.36V80.92h1.36v1.32c0.08-0.2,0.19-0.39,0.32-0.57c0.13-0.18,0.29-0.34,0.47-0.47
		c0.18-0.14,0.39-0.24,0.61-0.32c0.23-0.08,0.47-0.12,0.74-0.12c0.42,0,0.77,0.06,1.06,0.17s0.52,0.27,0.71,0.47
		c0.19,0.2,0.33,0.43,0.44,0.7c0.1,0.27,0.18,0.56,0.23,0.87c0.05,0.31,0.07,0.63,0.08,0.97s0.01,0.67,0.01,1.01V92H378.85z"/>
	<path class="st3" d="M387.27,88.38h1.36v0.13c0,0.28-0.01,0.57-0.03,0.86c-0.02,0.29-0.07,0.57-0.13,0.84
		c-0.07,0.27-0.17,0.52-0.3,0.76c-0.13,0.24-0.31,0.44-0.53,0.62c-0.22,0.17-0.5,0.31-0.83,0.41c-0.33,0.1-0.72,0.15-1.18,0.15
		c-0.47,0-0.87-0.06-1.2-0.17c-0.33-0.11-0.61-0.27-0.83-0.47c-0.22-0.2-0.4-0.43-0.54-0.69c-0.13-0.27-0.23-0.56-0.3-0.87
		c-0.07-0.31-0.11-0.63-0.13-0.97c-0.02-0.34-0.03-0.67-0.03-1.01v-2.7c0-0.17,0-0.33,0-0.5c0-0.17,0-0.34,0.01-0.51
		c0.01-0.47,0.05-0.92,0.14-1.35c0.09-0.42,0.24-0.8,0.46-1.12c0.22-0.32,0.53-0.58,0.91-0.76c0.39-0.19,0.89-0.28,1.5-0.28
		c0.47,0,0.87,0.05,1.2,0.16c0.33,0.1,0.61,0.25,0.83,0.42c0.22,0.18,0.4,0.39,0.53,0.63c0.13,0.24,0.23,0.49,0.3,0.76
		c0.07,0.27,0.12,0.54,0.13,0.83c0.02,0.29,0.03,0.56,0.03,0.83v0.15h-1.36v-0.15c0-0.28-0.01-0.55-0.03-0.83
		c-0.02-0.28-0.08-0.53-0.19-0.75c-0.11-0.22-0.27-0.41-0.5-0.54c-0.22-0.14-0.54-0.21-0.94-0.21c-0.39,0-0.7,0.08-0.92,0.23
		c-0.22,0.15-0.39,0.36-0.49,0.62c-0.11,0.26-0.17,0.57-0.2,0.92s-0.04,0.72-0.04,1.12v2.51c0,0.32,0,0.63,0,0.94
		c0,0.31,0.02,0.61,0.04,0.89c0.02,0.22,0.07,0.43,0.13,0.62c0.06,0.19,0.16,0.36,0.28,0.5c0.12,0.14,0.28,0.25,0.47,0.34
		c0.19,0.08,0.44,0.12,0.72,0.12c0.39,0,0.69-0.06,0.91-0.19c0.22-0.13,0.39-0.3,0.5-0.52c0.11-0.22,0.18-0.47,0.21-0.75
		c0.03-0.28,0.04-0.57,0.04-0.87V88.38z"/>
	<path class="st3" d="M390.81,91.32c0-0.28,0.07-0.5,0.21-0.64c0.14-0.14,0.36-0.22,0.66-0.22c0.33,0,0.57,0.07,0.7,0.22
		c0.14,0.14,0.2,0.36,0.2,0.64c0,0.27-0.07,0.48-0.2,0.62c-0.14,0.14-0.37,0.21-0.7,0.21c-0.3,0-0.52-0.07-0.66-0.21
		C390.88,91.8,390.81,91.59,390.81,91.32z"/>
</g>
<path class="st3" d="M295.86,29.53l-0.13,29.38c0,4.26-5.19,7.09-13.16,7.09c-8.39,0-12.5-3.46-14.28-6.71h-9.81
	c0,2.35,1.96,13.34,24.22,13.34c26.49,0,25.14-12.87,25.14-12.87l0.14-30.2L295.86,29.53z M301.91,49.97c1.39,0,2.51,1.12,2.51,2.51
	c0,1.39-1.12,2.51-2.51,2.51c-1.39,0-2.51-1.12-2.51-2.51C299.4,51.09,300.52,49.97,301.91,49.97z M301.91,65.94
	c-2.59,2.59-7.28,5.43-19.15,5.43c-0.04,0.01-0.42,0.03-1.04,0.03c-10.95,0-15.84-3.41-18.32-6.35c-1.39-1.66-1.78-3.62-1.78-3.62
	h4.97c0,0,2.35,6.57,15.31,6.57c0.41,0,0.68-0.01,0.74-0.02c11.74,0,16.76-4.45,16.76-8.76v-2.98h5.02v3.65
	C304.42,59.88,304.63,63.22,301.91,65.94z M192.61,41.18c0-9.58-12.97-11.99-31.03-11.99h-27.77v42.58h11.28V54.99h16.61
	l20.26,16.79h13.3l-21.67-17.85C184.51,53.93,192.61,47.81,192.61,41.18z M139.25,49.97c1.39,0,2.51,1.12,2.51,2.51
	c0,1.39-1.12,2.51-2.51,2.51c-1.39,0-2.51-1.12-2.51-2.51C136.74,51.09,137.87,49.97,139.25,49.97z M142.42,70.81h-6V56.08h6V70.81z
	 M145.09,33.59h14.87c13.8,0,21.4,1.03,21.4,7.59c0,3.69-4.47,7.31-11.83,7.31h-24.44V33.59z M158.6,49.79l7.64-0.13l4.16,3.39
	l-7.79,0.07L158.6,49.79z M191.33,70.36l-8.47,0.05l-18.6-15.56l7.62-0.32L191.33,70.36z M256.52,41.18
	c0-9.58-12.97-11.99-31.03-11.99h-27.77v42.58H209V54.99h16.61l20.26,16.79h13.3L237.5,53.93
	C248.41,53.93,256.52,47.81,256.52,41.18z M203.16,49.97c1.39,0,2.51,1.12,2.51,2.51c0,1.39-1.12,2.51-2.51,2.51
	s-2.51-1.12-2.51-2.51C200.65,51.09,201.77,49.97,203.16,49.97z M206.32,70.81h-6V56.08h6V70.81z M209,33.59h14.87
	c13.8,0,21.4,1.03,21.4,7.59c0,3.69-4.47,7.31-11.83,7.31H209V33.59z M222.51,49.79l7.64-0.13l4.16,3.39l-7.79,0.07L222.51,49.79z
	 M255.24,70.36l-8.47,0.05l-18.6-15.56l7.62-0.32L255.24,70.36z M378.22,29.57l-28.33,21.74l-28.11-21.74h-10.86v42.05H322l0-30.35
	l22.81,18.43h10.16l22.81-18.43l0,30.35h11.08V29.57H378.22z M316.65,49.97c1.39,0,2.51,1.12,2.51,2.51c0,1.39-1.12,2.51-2.51,2.51
	c-1.39,0-2.51-1.12-2.51-2.51C314.14,51.09,315.26,49.97,316.65,49.97z M319.65,70.81h-6V56.08h6V70.81z M383.45,49.97
	c1.39,0,2.51,1.12,2.51,2.51c0,1.39-1.12,2.51-2.51,2.51c-1.39,0-2.51-1.12-2.51-2.51C380.94,51.09,382.06,49.97,383.45,49.97z
	 M386.45,70.81h-6V56.08h6V70.81z"/>
<text transform="matrix(1 0 0 1 166.7295 110.2822)" class="st0 st4 st5">LICENSE NO. : POEA-222-LB-121015-R</text>
</svg>
